<svg width="109" height="39" viewBox="0 0 109 39" fill="none" xmlns="http://www.w3.org/2000/svg">
<g clip-path="url(#clip0_146_1028)">
<path d="M11.9062 4.84326H0V33.0958L11.9062 4.84326Z" fill="#FA0C00"/>
<path d="M20.2834 4.84326H32.1741V33.0958L20.2834 4.84326Z" fill="#FA0C00"/>
<path d="M16.0949 15.2559L23.673 33.0955H18.7011L16.4362 27.4158H10.8903L16.0949 15.2559Z" fill="#FA0C00"/>
<path d="M51.5978 22.8101L53.0017 26.8044C53.0483 26.9045 53.1181 26.9507 53.2422 26.9507H55.9414C56.0888 26.9507 56.1121 26.8814 56.0888 26.7352L50.5119 11.366C50.4886 11.2428 50.4654 11.2197 50.3413 11.2197H46.9905C46.8974 11.2197 46.8431 11.289 46.8431 11.389C46.7966 12.1971 46.7268 12.4434 46.6259 12.682L41.654 26.7121C41.6307 26.8814 41.685 26.9507 41.8247 26.9507H44.2369C44.3843 26.9507 44.4541 26.9045 44.5084 26.7582L45.8348 22.8101H51.5978ZM46.6027 20.2011C47.3318 18.0154 48.2936 15.214 48.6814 13.6132H48.7047C49.1856 15.291 50.318 18.6157 50.8299 20.2011H46.6027Z" fill="#FA0C00"/>
<path d="M63.2584 27.1894C64.7089 27.1894 66.2524 26.9277 67.8193 26.2581C67.9434 26.2119 67.9666 26.1581 67.9666 26.0426C67.9201 25.6116 67.8658 24.9883 67.8658 24.5111V10.0423C67.8658 9.94999 67.8658 9.90381 67.7495 9.90381H65.12C65.0192 9.90381 64.9726 9.94999 64.9726 10.0731V14.9756C64.5615 14.9294 64.2745 14.9063 63.9333 14.9063C59.6905 14.9063 57.0843 17.6846 57.0843 21.1556C57.0843 25.1807 59.7603 27.1894 63.2584 27.1894ZM64.9726 24.5111C64.5383 24.6496 64.0574 24.7035 63.5687 24.7035C61.6451 24.7035 60.0705 23.626 60.0705 21.0093C60.0705 18.6928 61.6916 17.3229 63.8402 17.3229C64.2745 17.3229 64.6546 17.3691 64.9726 17.4922V24.5111Z" fill="#FA0C00"/>
<path d="M76.355 14.9062C72.7327 14.9062 70.4911 17.6615 70.4911 21.0632C70.4911 24.1031 72.2751 27.1893 76.3007 27.1893C79.7058 27.1893 82.0948 24.7034 82.0948 20.9862C82.0948 17.7076 80.0703 14.9062 76.355 14.9062ZM76.2076 17.3228C78.2553 17.3228 79.124 19.0699 79.124 21.0632C79.124 23.5259 77.8442 24.7496 76.355 24.7496C74.5167 24.7496 73.4308 23.2181 73.4308 21.0093C73.4308 18.7389 74.5865 17.3228 76.2076 17.3228Z" fill="#FA0C00"/>
<path d="M84.8133 9.90381C84.7124 9.90381 84.6426 9.94999 84.6426 10.0731V26.4505C84.6426 26.5198 84.7124 26.6429 84.8133 26.666C85.969 27.02 87.179 27.1894 88.4278 27.1894C92.0035 27.1894 95.4784 24.9883 95.4784 20.5553C95.4784 17.346 93.2601 14.9063 89.7852 14.9063C88.9863 14.9063 88.2416 15.0294 87.5901 15.2449L87.5591 10.0962C87.5591 9.9269 87.5125 9.90381 87.3419 9.90381H84.8133ZM92.5077 20.8477C92.5077 23.5029 90.6772 24.7497 88.6993 24.7497C88.2882 24.7497 87.9236 24.7266 87.5901 24.6265V17.6384C87.9702 17.4922 88.4278 17.3691 89.2732 17.3691C91.1813 17.3691 92.5077 18.5697 92.5077 20.8477Z" fill="#FA0C00"/>
<path d="M105.291 21.7096C106.47 21.7096 107.44 21.6866 107.774 21.6096C107.898 21.5865 107.944 21.5403 107.967 21.4403C108.037 21.1786 108.068 20.6322 108.068 19.9626C108.068 17.6846 106.688 14.9062 103.12 14.9062C99.4741 14.9062 97.4497 17.8539 97.4497 21.1786C97.4497 24.1262 99.0165 27.1893 103.407 27.1893C105.051 27.1893 106.114 26.9276 107.029 26.4966C107.122 26.4505 107.169 26.3735 107.169 26.235V24.2417C107.169 24.1262 107.099 24.1031 107.029 24.1493C106.114 24.5341 105.121 24.7265 104.035 24.7265C101.576 24.7265 100.459 23.3797 100.389 21.7096H105.291ZM100.389 19.6471C100.583 18.4773 101.328 17.2074 102.996 17.2074C104.834 17.2074 105.315 18.7389 105.315 19.4316C105.315 19.4547 105.315 19.5547 105.315 19.624C105.214 19.6471 104.904 19.6471 103.988 19.6471H100.389Z" fill="#FA0C00"/>
</g>
<defs>
<clipPath id="clip0_146_1028">
<rect width="108.201" height="38.7464" fill="white"/>
</clipPath>
</defs>
</svg>
