<svg width="114" height="39" viewBox="0 0 114 39" fill="none" xmlns="http://www.w3.org/2000/svg">
<g clip-path="url(#clip0_146_1172)">
<path d="M53.4785 10.9872C52.8719 10.9684 52.3791 11.4386 52.3601 12.0217C52.3601 12.0405 52.3601 12.0781 52.3601 12.0969V17.4387C49.7631 15.3697 45.9529 15.7835 43.8677 18.3603C43.0146 19.4324 42.5407 20.749 42.5407 22.1221C42.4838 25.4325 45.1377 28.1597 48.4741 28.2162C51.8104 28.2726 54.559 25.6394 54.6159 22.329C54.6159 22.2537 54.6159 22.1973 54.6159 22.1221V12.0969C54.6159 11.796 54.5022 11.5139 54.2936 11.307C54.0662 11.1001 53.7818 10.9872 53.4785 10.9872ZM52.0568 23.5704C51.6777 24.4732 50.9573 25.1879 50.0474 25.5829C49.0996 25.9779 48.0381 25.9779 47.0902 25.5829C46.1803 25.2067 45.4789 24.4732 45.0998 23.5892C44.7017 22.6675 44.7017 21.6142 45.0998 20.6738C45.4789 19.771 46.1993 19.0562 47.0902 18.6801C48.0381 18.2851 49.0996 18.2851 50.0474 18.6801C50.9573 19.075 51.6777 19.7898 52.0568 20.6926C52.4549 21.5954 52.4549 22.6487 52.0568 23.5704Z" fill="#0091E2"/>
<path d="M66.0845 17.8901C63.7339 15.5578 59.9047 15.5578 57.5541 17.8901C56.4167 19.0186 55.7912 20.5421 55.7912 22.1221C55.7343 25.4324 58.3882 28.1597 61.7245 28.2162C65.0608 28.2726 67.8095 25.6393 67.8664 22.329C67.8664 22.2537 67.8664 22.1973 67.8664 22.1221C67.8664 21.3321 67.7147 20.5609 67.4114 19.8274C67.1081 19.0938 66.6532 18.4355 66.0845 17.8901ZM65.3073 23.5516C65.1177 24.003 64.8334 24.398 64.4921 24.7365C64.1509 25.0751 63.7339 25.3572 63.2979 25.5453C62.3501 25.9403 61.2885 25.9403 60.3407 25.5453C59.4308 25.1691 58.7105 24.4356 58.3313 23.5516C57.9332 22.6299 57.9332 21.5766 58.3313 20.6362C58.7105 19.7333 59.4308 19.0374 60.3407 18.6424C61.2885 18.2474 62.3501 18.2474 63.2979 18.6424C63.7528 18.8305 64.1509 19.1127 64.4921 19.4512C64.8334 19.7898 65.1177 20.2036 65.3073 20.6362C65.7053 21.5954 65.7053 22.6487 65.3073 23.5516Z" fill="#0091E2"/>
<path d="M91.0499 17.2318C91.0499 17.0813 91.012 16.9309 90.9551 16.7992C90.8982 16.6675 90.8035 16.5547 90.7087 16.4418C90.6139 16.3478 90.4812 16.2538 90.3485 16.1973C90.2158 16.1409 90.0642 16.1033 89.9125 16.1033C89.704 16.1033 89.4955 16.1597 89.3059 16.2726L82.8607 20.4293V12.1158C82.8607 11.8148 82.747 11.5327 82.5385 11.3258C82.33 11.1189 82.0456 10.9873 81.7423 10.9873C81.1168 10.9873 80.6239 11.4763 80.6049 12.097C80.6049 12.097 80.6049 12.097 80.6049 12.1158V26.9748C80.6049 27.2758 80.7187 27.5579 80.9272 27.7648C81.1357 27.9905 81.4201 28.1034 81.7234 28.1034C82.0267 28.1034 82.311 27.9905 82.5195 27.7648C82.7281 27.5579 82.8607 27.2758 82.8418 26.9748V23.119L84.1498 22.2726L89.1353 27.8212C89.3438 28.0093 89.6092 28.1222 89.8936 28.1034C90.0452 28.1034 90.1969 28.0846 90.3295 28.0093C90.4622 27.9529 90.576 27.8777 90.6897 27.7648C90.7845 27.652 90.8793 27.5391 90.9361 27.4074C90.993 27.2758 91.0309 27.1253 91.0309 26.9748C91.0309 26.6927 90.9172 26.4106 90.7276 26.2037L86.1023 21.0312L90.6139 18.1158C90.9172 17.9277 91.0688 17.5892 91.0499 17.2318Z" fill="#0091E2"/>
<path d="M72.34 19.4512C72.6812 19.1126 73.0983 18.8305 73.5532 18.6424C74.0271 18.4543 74.52 18.3415 75.0318 18.3415C75.4868 18.3415 75.9228 18.4167 76.3398 18.5672C76.7569 18.7365 77.1549 18.9622 77.4962 19.2631C77.7047 19.4324 77.9701 19.5076 78.2355 19.5076C78.5387 19.5264 78.842 19.4136 79.0506 19.1879C79.2591 18.981 79.3728 18.68 79.3728 18.3791C79.3728 18.0593 79.2401 17.7396 78.9747 17.5327C77.8942 16.5734 76.4915 16.0468 75.0318 16.0844C71.6955 16.0844 68.9847 18.7741 68.9847 22.0844C68.9847 25.3948 71.6766 28.0657 74.9939 28.0845C76.4536 28.0845 77.8563 27.5766 78.9558 26.6362C79.1833 26.4293 79.316 26.1284 79.316 25.8086C79.3349 25.2067 78.861 24.7177 78.2734 24.6989C78.2544 24.6989 78.2165 24.6989 78.1975 24.6989C77.9321 24.6989 77.6857 24.7741 77.4772 24.9246C77.136 25.2255 76.7569 25.4512 76.3398 25.6205C75.9228 25.771 75.4678 25.8462 75.0318 25.8462C74.52 25.8462 74.0271 25.7522 73.5532 25.5453C73.0983 25.3572 72.7002 25.0751 72.34 24.7365C70.8614 23.2694 70.8614 20.8995 72.3211 19.4324C72.34 19.47 72.34 19.47 72.34 19.4512Z" fill="#0091E2"/>
<path d="M113.438 16.8744C113.21 16.6675 112.964 16.517 112.679 16.423C112.357 16.3101 112.016 16.2349 111.675 16.1973C111.333 16.1597 110.992 16.1408 110.651 16.1408C109.969 16.1408 109.267 16.2537 108.623 16.4982C107.978 16.7239 107.39 17.0625 106.86 17.4763V17.2506C106.841 16.6299 106.31 16.1597 105.684 16.1785C105.097 16.1973 104.623 16.6675 104.604 17.2506V27.0124C104.623 27.6331 105.154 28.1033 105.779 28.0845C106.367 28.0657 106.841 27.5955 106.86 27.0124V22.1409C106.86 21.633 106.954 21.144 107.163 20.6738C107.353 20.2224 107.618 19.8274 107.978 19.4888C108.319 19.1503 108.736 18.8681 109.172 18.68C109.646 18.492 110.139 18.3791 110.651 18.3791C111.163 18.3791 111.656 18.4732 112.13 18.6424C112.281 18.7177 112.433 18.7553 112.603 18.7553C112.755 18.7553 112.907 18.7365 113.039 18.6612C113.172 18.6048 113.286 18.5296 113.4 18.4167C113.494 18.3227 113.589 18.191 113.646 18.0594C113.703 17.9277 113.741 17.7772 113.741 17.6267C113.76 17.3446 113.646 17.0813 113.438 16.8744Z" fill="#0091E2"/>
<path d="M102.974 19.8274C102.007 17.6079 99.8078 16.1597 97.3814 16.1408C94.0451 16.1408 91.3533 18.8117 91.3343 22.1221C91.3343 25.4324 94.0451 28.1221 97.3814 28.1221C98.8221 28.1221 100.225 27.6143 101.324 26.6738C101.343 26.655 101.362 26.6362 101.362 26.6362C101.457 26.561 101.552 26.4669 101.609 26.3541C101.969 25.8274 101.836 25.1315 101.324 24.7741C100.888 24.492 100.32 24.5484 99.9405 24.9058C99.9026 24.9434 99.7889 25.0375 99.7889 25.0563L99.7699 25.0751C99.4477 25.3384 99.0875 25.5641 98.6894 25.6958C98.2724 25.8462 97.8364 25.9215 97.3814 25.9027C96.9644 25.9027 96.5663 25.8462 96.1682 25.7146C95.7891 25.5829 95.4289 25.4136 95.1067 25.1691C94.7844 24.9434 94.5001 24.6613 94.2726 24.3415C94.0261 24.0218 93.8555 23.6456 93.7418 23.2694H102.272C102.575 23.2694 102.86 23.1566 103.068 22.9497C103.296 22.7428 103.41 22.4606 103.391 22.1597C103.41 21.3509 103.258 20.5609 102.974 19.8274ZM93.7418 21.0312C93.8555 20.6362 94.0261 20.2788 94.2726 19.9591C94.5001 19.6393 94.7844 19.3572 95.1067 19.1315C95.4289 18.9058 95.7891 18.7177 96.1682 18.586C96.5473 18.4543 96.9644 18.3979 97.3625 18.3979C97.7605 18.3979 98.1776 18.4543 98.5567 18.586C99.315 18.8305 99.9784 19.3196 100.452 19.9591C100.699 20.2788 100.869 20.655 101.002 21.0312H93.7418Z" fill="#0091E2"/>
<path d="M109.589 26.4858C109.153 26.4858 108.812 26.8431 108.812 27.2757C108.812 27.7083 109.172 28.0469 109.608 28.0469C110.044 28.0469 110.385 27.6895 110.385 27.2757C110.385 26.8243 110.025 26.4858 109.589 26.4858ZM109.589 27.8776C109.248 27.8964 108.964 27.6331 108.945 27.2945C108.926 26.956 109.191 26.6738 109.532 26.655C109.874 26.6362 110.158 26.8996 110.177 27.2381C110.177 27.2569 110.177 27.2569 110.177 27.2757C110.196 27.5955 109.93 27.8776 109.608 27.8776C109.608 27.8776 109.608 27.8776 109.589 27.8776Z" fill="#0091E2"/>
<path d="M109.779 27.2757C109.874 27.2569 109.93 27.1816 109.93 27.0876C109.93 27.0124 109.911 26.9559 109.855 26.9183C109.779 26.8807 109.684 26.8619 109.589 26.8619C109.494 26.8619 109.381 26.8619 109.286 26.8807V27.6519H109.457V27.3509H109.532C109.627 27.3509 109.684 27.3885 109.703 27.4638C109.722 27.5202 109.741 27.5954 109.76 27.6519H109.949C109.911 27.5954 109.893 27.5202 109.893 27.4638C109.911 27.3885 109.855 27.3133 109.779 27.2757ZM109.551 27.2192H109.457V26.9935C109.494 26.9935 109.532 26.9935 109.551 26.9935C109.665 26.9935 109.722 27.05 109.722 27.1064C109.741 27.1816 109.646 27.2381 109.551 27.2192Z" fill="#0091E2"/>
<path d="M40.4743 13.5076C40.3606 13.4136 39.3369 12.6424 37.138 12.6424C36.5693 12.6424 35.9816 12.6989 35.4129 12.7929C34.9959 9.91513 32.5885 8.52327 32.4937 8.44804L31.906 8.10948L31.5269 8.65494C31.053 9.38848 30.6928 10.2161 30.4843 11.0625C30.0862 12.6989 30.3326 14.2412 31.1667 15.5578C30.162 16.1221 28.5318 16.2537 28.1906 16.2725H1.27255C0.571165 16.2725 0.00247413 16.8368 0.00247413 17.5327C-0.0354386 19.865 0.362645 22.1974 1.17777 24.398C2.10663 26.8055 3.49044 28.5924 5.27234 29.6833C7.28171 30.9059 10.5612 31.6018 14.2577 31.6018C15.9258 31.6018 17.594 31.4513 19.2432 31.1504C21.5369 30.7366 23.7358 29.9466 25.7642 28.7993C27.4323 27.84 28.9299 26.6174 30.1999 25.188C32.342 22.7992 33.6121 20.1284 34.541 17.7585C34.6737 17.7585 34.7874 17.7585 34.9201 17.7585C37.2517 17.7585 38.6924 16.8368 39.4886 16.0468C40.0193 15.5578 40.4174 14.9559 40.7018 14.2788L40.8724 13.7898L40.4743 13.5076Z" fill="#0091E2"/>
<path d="M3.77485 15.5014H7.37656C7.54717 15.5014 7.69882 15.3698 7.69882 15.1817V11.9842C7.69882 11.8149 7.56612 11.6644 7.37656 11.6644H3.77485C3.60424 11.6644 3.45259 11.7961 3.45259 11.9842V15.1817C3.47155 15.3698 3.60424 15.5014 3.77485 15.5014Z" fill="#0091E2"/>
<path d="M8.74152 15.5014H12.3432C12.5138 15.5014 12.6655 15.3698 12.6655 15.1817V11.9842C12.6655 11.8149 12.5328 11.6644 12.3432 11.6644H8.74152C8.57091 11.6644 8.41926 11.7961 8.41926 11.9842V15.1817C8.43822 15.3698 8.57091 15.5014 8.74152 15.5014Z" fill="#0091E2"/>
<path d="M13.8029 15.5014H17.4046C17.5752 15.5014 17.7269 15.3698 17.7269 15.1817V11.9842C17.7269 11.8149 17.5942 11.6644 17.4046 11.6644H13.8029C13.6323 11.6644 13.4807 11.7961 13.4807 11.9842V15.1817C13.4807 15.3698 13.6134 15.5014 13.8029 15.5014Z" fill="#0091E2"/>
<path d="M18.7883 15.5014H22.39C22.5606 15.5014 22.7122 15.3698 22.7122 15.1817V11.9842C22.7122 11.8149 22.5795 11.6644 22.39 11.6644H18.7883C18.6177 11.6644 18.466 11.7961 18.466 11.9842V15.1817C18.466 15.3698 18.6177 15.5014 18.7883 15.5014Z" fill="#0091E2"/>
<path d="M8.74152 10.9308H12.3432C12.5138 10.9308 12.6655 10.7803 12.6655 10.611V7.41351C12.6655 7.24423 12.5328 7.09376 12.3432 7.09376H8.74152C8.57091 7.09376 8.41926 7.22542 8.41926 7.41351V10.611C8.43822 10.7803 8.57091 10.9308 8.74152 10.9308Z" fill="#0091E2"/>
<path d="M13.8029 10.9308H17.4046C17.5752 10.9308 17.7269 10.7803 17.7269 10.611V7.41351C17.7269 7.24423 17.5942 7.09376 17.4046 7.09376H13.8029C13.6323 7.09376 13.4807 7.22542 13.4807 7.41351V10.611C13.4807 10.7803 13.6134 10.9308 13.8029 10.9308Z" fill="#0091E2"/>
<path d="M18.7883 10.9308H22.39C22.5606 10.9308 22.7122 10.7803 22.7122 10.611V7.41351C22.7122 7.24423 22.5606 7.09376 22.39 7.09376H18.7883C18.6177 7.09376 18.466 7.22542 18.466 7.41351V10.611C18.466 10.7803 18.6177 10.9308 18.7883 10.9308Z" fill="#0091E2"/>
<path d="M18.7883 6.34141H22.39C22.5606 6.34141 22.7122 6.20975 22.7122 6.02166V2.82415C22.7122 2.65487 22.5606 2.50439 22.39 2.50439H18.7883C18.6177 2.50439 18.466 2.63606 18.466 2.82415V6.02166C18.466 6.19094 18.6177 6.34141 18.7883 6.34141Z" fill="#0091E2"/>
<path d="M23.8117 15.5014H27.4134C27.584 15.5014 27.7357 15.3698 27.7357 15.1817V11.9842C27.7357 11.8149 27.603 11.6644 27.4134 11.6644H23.8117C23.6411 11.6644 23.4895 11.7961 23.4895 11.9842V15.1817C23.5084 15.3698 23.6411 15.5014 23.8117 15.5014Z" fill="#0091E2"/>
</g>
<defs>
<clipPath id="clip0_146_1172">
<rect width="113.896" height="38.7464" fill="white"/>
</clipPath>
</defs>
</svg>
