<svg width="92" height="39" viewBox="0 0 92 39" fill="none" xmlns="http://www.w3.org/2000/svg">
<g clip-path="url(#clip0_146_1178)">
<path fill-rule="evenodd" clip-rule="evenodd" d="M90.5424 24.671C86.7529 31.0458 80.7515 29.1961 78.9491 27.7478C78.182 28.2642 76.8369 29.3962 75.0433 29.2655C71.2235 28.9872 69.8556 23.571 69.8556 23.571C69.883 23.5927 68.7178 23.97 68.088 23.9633C68.0799 25.5516 66.6961 29.3458 62.9617 29.2973C58.771 29.2431 57.9191 23.0484 57.9191 23.0484C57.9191 23.0484 57.5021 23.6229 55.9164 24.1952C55.9963 22.9749 55.9379 29.1115 50.9153 29.2018C46.9445 29.2731 45.8727 22.9528 45.8727 22.9528C45.8727 22.9528 45.1839 23.6628 43.8489 23.9091C43.9338 22.6689 43.7958 29.2226 38.7726 29.2018C35.3779 29.1878 34.2179 25.3084 34.3081 24.77C34.4233 24.0838 33.1609 29.2982 29.8635 29.217C28.5027 29.1774 27.4883 28.1998 26.8517 26.8966C25.9995 27.864 24.7623 29.217 23.3744 29.217C20.883 29.217 19.7846 27.1494 19.9707 21.2441C19.9865 20.5437 19.9356 20.2682 19.2339 20.1634C18.8127 20.0936 18.3813 19.9616 17.9249 19.892C17.7786 20.3764 16.538 29.0595 12.2717 29.2243C10.8404 29.2795 10.0578 28.0493 9.41511 27.1363C8.4299 28.4295 7.12936 29.2655 5.27664 29.2655C2.13827 29.2655 0 26.7481 0 23.6428C0 20.5374 2.13827 18.0203 5.27664 18.0203C5.83154 18.0203 5.98731 18.0992 6.49424 18.246C5.45172 8.8279 7.91374 7.35599 10.0675 7.35599C12.1352 7.35599 15.6676 12.1178 10.6972 24.1962C11.8007 27.7988 14.1797 27.5951 15.3229 20.1788C15.5556 18.6713 14.9335 16.637 15.9011 16.353C17.6701 15.8341 17.8577 17.391 18.6871 17.6504C19.5641 17.9245 20.076 17.8977 20.9179 18.0722C22.3566 18.351 22.918 19.1178 22.7427 20.8257C22.5322 22.9867 22.164 26.132 23.2867 26.5153C24.0963 26.7938 25.5744 25.1279 25.8338 24.2164C26.0931 23.3049 26.1472 22.9929 26.1703 22.3244C26.2054 20.8955 26.2494 19.8481 26.4949 18.7675C26.6001 18.3493 26.7199 18.0724 27.1967 18.0535C27.589 18.0436 28.3065 17.9264 28.6223 18.1703C29.0433 18.4841 28.9906 18.8026 28.9423 19.6407C28.4527 31.5904 32.2209 25.625 33.3444 20.8485C32.9443 15.4474 33.219 7.4549 36.6301 7.32085C38.4041 7.25113 39.1884 8.66129 39.2747 9.71384C39.5187 12.6866 38.1519 17.611 36.3543 20.9226C35.327 27.6798 40.8461 29.0159 41.7287 23.6223C40.2847 22.9411 38.7241 20.1837 39.9941 18.84C40.7066 18.0859 43.6728 19.1692 43.7214 21.5321C45.1763 21.146 45.3706 20.3309 45.3908 20.466C44.9908 15.0649 45.3618 7.45497 48.7731 7.32092C50.5469 7.2512 51.3311 8.66136 51.4174 9.71391C51.6614 12.6867 50.2946 17.6111 48.4973 20.9227C47.4698 27.6798 52.989 29.016 53.8714 23.6224C52.8023 23.4177 50.5455 20.4849 51.8476 18.8401C52.5435 17.9611 55.4988 19.789 55.8297 21.6104C57.2274 21.2179 57.4172 20.4287 57.4373 20.5615C57.0372 15.1606 57.4082 7.55069 60.8195 7.41664C62.5933 7.34692 63.3775 8.75708 63.4638 9.80963C63.7078 12.7824 62.341 17.7069 60.5434 21.0185C59.5162 27.7757 65.0353 29.1115 65.9179 23.718C64.4487 23.4753 62.3608 20.3786 64.0413 18.7945C64.7127 18.1615 67.2782 19.8045 67.8787 21.679C68.7131 21.6472 69.2325 21.3616 69.3438 21.3329C68.0118 14.9923 69.0034 7.38451 72.6731 7.32101C74.6565 7.28672 76.5956 8.38496 75.7445 14.4172C74.9321 20.1726 72.0117 22.5879 72.0185 22.6249C72.1884 23.3144 73.687 29.0848 77.4606 26.0401C77.2652 25.6012 77.0697 25.1529 76.9604 24.6097C76.3349 21.4457 77.5634 17.8719 80.9026 17.2943C82.8158 16.9634 84.618 17.8876 84.9029 19.9711C85.3717 23.3804 82.269 25.8495 81.0892 26.3851C80.5607 26.0872 85.8794 29.4718 89.0359 22.689C89.2189 22.3018 89.4395 22.3346 89.7254 22.5342C89.9273 22.6752 91.0773 23.7561 90.5424 24.671ZM7.55952 22.8051C7.39892 22.3286 7.06932 21.2789 6.95277 20.824C6.31088 20.2702 5.85272 20.1802 5.02879 20.1802C3.19777 20.1802 2.12006 21.8599 2.12006 23.6712C2.12006 25.4824 3.29414 27.1623 5.12517 27.1623C6.71197 27.1623 7.91967 26.0918 8.28813 24.5764C8.03023 23.9857 7.77439 23.4427 7.55952 22.8051ZM10.0226 9.84902C8.73603 9.84902 8.29959 12.8943 8.38428 15.4922C8.45921 17.789 9.10605 19.8112 9.4416 20.7172C9.5268 20.8308 9.51097 20.7569 9.58703 20.8773C11.8209 16.0208 10.8944 9.84902 10.0226 9.84902ZM36.8138 9.94468C35.151 9.75545 35.1617 16.6285 35.3681 18.1703C36.2318 16.7994 37.732 10.3138 36.8138 9.94468ZM48.9565 9.94468C47.2937 9.75545 47.3044 16.6285 47.511 18.1703C48.3745 16.7994 49.8748 10.3138 48.9565 9.94468ZM61.003 10.0403C59.3401 9.85108 59.3508 16.7242 59.5574 18.266C60.4209 16.8951 61.9212 10.4094 61.003 10.0403ZM72.8566 9.54234C70.2658 10.0585 70.8691 18.6295 71.2626 20.1327C74.3143 15.9738 74.3772 9.38612 72.8566 9.54234ZM82.5663 20.2531C82.4345 19.7066 81.7759 19.4146 81.3213 19.4865C80.0204 19.6628 78.7588 21.2703 79.2471 23.7177C79.3558 24.2628 79.6279 24.7646 79.6235 24.7479C82.5348 22.8099 82.7822 21.2828 82.5663 20.2531ZM27.7066 16.1617C27.3348 16.1618 26.9714 16.0525 26.6622 15.8476C26.3531 15.6426 26.112 15.3514 25.9697 15.0106C25.8273 14.6698 25.7901 14.2947 25.8627 13.9329C25.9351 13.5711 26.1142 13.2387 26.3771 12.9778C26.6399 12.717 26.9748 12.5393 27.3395 12.4673C27.7041 12.3953 28.0821 12.4323 28.4257 12.5734C28.7692 12.7146 29.0627 12.9537 29.2692 13.2604C29.4758 13.5672 29.586 13.9278 29.586 14.2967C29.586 14.5416 29.5375 14.7841 29.443 15.0104C29.3486 15.2367 29.2102 15.4422 29.0356 15.6154C28.861 15.7886 28.6539 15.926 28.4259 16.0197C28.1979 16.1135 27.9535 16.1617 27.7066 16.1617Z" fill="#0D0C22"/>
</g>
<defs>
<clipPath id="clip0_146_1178">
<rect width="91.1169" height="38.7464" fill="white"/>
</clipPath>
</defs>
</svg>
