<svg width="105" height="39" viewBox="0 0 105 39" fill="none" xmlns="http://www.w3.org/2000/svg">
<g clip-path="url(#clip0_146_1185)">
<path d="M35.9359 19.4157C35.9393 17.9688 35.4917 16.5563 34.6545 15.3716C33.8173 14.187 32.6314 13.2882 31.2593 12.7984C31.3842 12.1669 31.4471 11.5249 31.4473 10.8813C31.4485 8.75127 30.7689 6.67568 29.5063 4.95298C28.2437 3.23028 26.463 1.94921 24.4204 1.29396C22.3777 0.63871 20.1782 0.643028 18.1382 1.30629C16.0981 1.96956 14.3226 3.25761 13.0668 4.98525C12.1404 4.27292 11.0052 3.87957 9.83328 3.86478C8.66133 3.85 7.51644 4.21458 6.57205 4.90331C5.62766 5.59204 4.93521 6.56739 4.59959 7.68163C4.26397 8.79586 4.30347 9.98827 4.7121 11.0782C3.33676 11.5756 2.14793 12.479 1.30552 13.6669C0.463101 14.8547 0.00750965 16.27 2.40806e-05 17.7225C-0.00379222 19.1743 0.446083 20.5917 1.28771 21.7793C2.12934 22.967 3.32133 23.8666 4.69957 24.3543C4.57757 24.9854 4.51533 25.6266 4.51367 26.2692C4.51162 28.3968 5.19061 30.4701 6.45273 32.1901C7.71484 33.9101 9.49488 35.188 11.5362 35.8395C13.5775 36.491 15.7745 36.4824 17.8106 35.8149C19.8466 35.1475 21.6165 33.8558 22.8649 32.1259C23.7886 32.84 24.9218 33.2358 26.0927 33.2531C27.2636 33.2705 28.4082 32.9085 29.353 32.222C30.2978 31.5356 30.9912 30.5621 31.3281 29.4493C31.6649 28.3366 31.6268 27.1451 31.2196 26.0558C32.5957 25.5592 33.7853 24.6561 34.6282 23.4681C35.4711 22.2801 35.9267 20.8643 35.9338 19.4115" fill="white"/>
<path d="M14.128 16.1038L21.9919 19.6663L29.9289 12.7692C30.0432 12.2001 30.0999 11.6211 30.0981 11.0408C30.0977 9.16213 29.4913 7.3329 28.3677 5.82079C27.2441 4.30868 25.6622 3.19306 23.8536 2.63718C22.045 2.08131 20.1046 2.11436 18.3162 2.73149C16.5279 3.34863 14.9856 4.51746 13.9149 6.06694L12.5928 12.8521L14.128 16.1038Z" fill="#FEC514"/>
<path d="M5.98812 24.3663C5.87217 24.9443 5.8141 25.5323 5.81476 26.1216C5.8148 28.0081 6.42428 29.8449 7.55376 31.3625C8.68323 32.88 10.2732 33.9983 12.0904 34.5534C13.9075 35.1084 15.8561 35.0708 17.6501 34.4463C19.4442 33.8217 20.9892 32.6429 22.0585 31.083L23.3681 24.3124L21.6199 20.9965L13.7267 17.4277L5.98812 24.3663Z" fill="#00BFB3"/>
<path d="M5.94024 10.8645L11.3291 12.1267L12.5092 6.04612C11.7762 5.49467 10.8829 5.19362 9.96311 5.18807C9.04328 5.18251 8.14639 5.47274 7.40672 6.0153C6.66705 6.55786 6.12441 7.32356 5.86004 8.19774C5.59568 9.07193 5.62381 10.0076 5.94024 10.8645Z" fill="#F04E98"/>
<path d="M5.47248 12.1372C4.29012 12.5331 3.26149 13.2847 2.52965 14.2876C1.79781 15.2905 1.39915 16.4947 1.3891 17.7328C1.38825 18.9294 1.75448 20.0979 2.43911 21.083C3.12373 22.0681 4.09432 22.823 5.22184 23.2476L12.7829 16.4665L11.3939 13.5237L5.47248 12.1372Z" fill="#1BA9F5"/>
<path d="M23.4413 31.0833C24.1731 31.6319 25.0641 31.931 25.9813 31.9359C26.8985 31.9407 27.7927 31.651 28.5303 31.1101C29.2679 30.5692 29.8093 29.8061 30.0738 28.9346C30.3383 28.0632 30.3116 27.1303 29.9977 26.2752L24.6131 25.0317L23.4413 31.0833Z" fill="#93C90E"/>
<path d="M24.5359 23.6251L30.4636 24.9992C31.6466 24.6044 32.676 23.853 33.408 22.8499C34.14 21.8468 34.5382 20.642 34.547 19.4036C34.5459 18.2095 34.179 17.044 33.4948 16.0616C32.8106 15.0793 31.8416 14.3266 30.7163 13.9033L22.9631 20.6388L24.5359 23.6251Z" fill="#0077CC"/>
<path d="M50.2454 25.7593L50.964 25.6867L51.0141 27.1374C49.4152 27.377 47.8019 27.5086 46.185 27.5312C44.4027 27.5312 43.1397 27.0193 42.3962 25.9955C41.6526 24.9717 41.2815 23.3787 41.2829 21.2165C41.2829 16.9099 43.0082 14.756 46.4587 14.7546C48.1296 14.7546 49.3759 15.2175 50.1974 16.1431C51.019 17.0688 51.4311 18.5195 51.4339 20.4953L51.3357 21.8962H43.1648C43.1648 23.2558 43.4127 24.263 43.9084 24.9179C44.4041 25.5727 45.266 25.9002 46.4942 25.9002C47.7251 25.9043 48.9755 25.8574 50.2454 25.7593ZM49.5771 20.4289C49.5771 18.9216 49.3341 17.857 48.8481 17.2353C48.3622 16.6136 47.5698 16.302 46.4712 16.3006C45.3725 16.3006 44.5468 16.6281 43.994 17.283C43.4412 17.9379 43.1565 18.9865 43.1397 20.4289H49.5771Z" fill="#1C1E23"/>
<path d="M54.0239 27.4338V11.2688H55.8807V27.4338H54.0239Z" fill="#1C1E23"/>
<path d="M67.5754 18.7088V24.9054C67.5754 25.5272 69.1168 25.494 69.1168 25.494L69.0228 27.1229C67.7174 27.1229 66.6376 27.2307 65.9901 26.6069C64.5879 27.2248 63.0691 27.5392 61.5349 27.5291C60.3973 27.5291 59.5305 27.2093 58.9345 26.5696C58.3385 25.9299 58.0412 25.0104 58.0426 23.8112C58.0426 22.6147 58.3483 21.7339 58.9595 21.1688C59.5708 20.6037 60.5282 20.2583 61.8315 20.1326L65.7185 19.7658V18.7088C65.7185 17.8798 65.5375 17.2816 65.1755 16.9141C64.9771 16.7293 64.743 16.5863 64.4875 16.4937C64.2319 16.4011 63.96 16.3608 63.6883 16.3752H58.8092V14.7525H63.5651C64.9687 14.7525 65.988 15.0724 66.6229 15.7121C67.2579 16.3518 67.5754 17.3507 67.5754 18.7088ZM59.9454 23.72C59.9454 25.2273 60.572 25.981 61.8252 25.981C62.9558 25.9797 64.078 25.7884 65.1441 25.4152L65.7123 25.2184V21.1647L62.055 21.5087C61.3114 21.575 60.7746 21.7878 60.4446 22.147C60.1146 22.5062 59.9482 23.0306 59.9454 23.72Z" fill="#1C1E23"/>
<path d="M74.825 16.4001C73.0246 16.4001 72.1243 17.0218 72.1243 18.2653C72.1243 18.8401 72.3332 19.2456 72.751 19.4818C73.1687 19.7181 74.1093 19.964 75.5728 20.2196C77.0432 20.4752 78.0834 20.8317 78.6933 21.289C79.3032 21.7463 79.6088 22.6057 79.6102 23.8671C79.6102 25.1299 79.2015 26.0556 78.3841 26.6442C77.5668 27.2328 76.3741 27.5277 74.8062 27.5291C73.7828 27.5291 70.3657 27.1519 70.3657 27.1519L70.4659 25.5562C72.4293 25.7427 73.8475 25.8815 74.8062 25.8815C75.7649 25.8815 76.4939 25.7302 76.9973 25.4277C77.5006 25.1251 77.7513 24.6173 77.7513 23.9044C77.7513 23.1915 77.5424 22.7086 77.108 22.4537C76.6735 22.1988 75.7378 21.9584 74.2861 21.7284C72.8345 21.4983 71.8006 21.1626 71.1907 20.7212C70.5808 20.2797 70.2738 19.459 70.2738 18.2632C70.2738 17.0674 70.6915 16.1908 71.55 15.6105C72.4084 15.0302 73.4611 14.7505 74.731 14.7505C75.7378 14.7505 79.2321 15.0054 79.2321 15.0054V16.6115C77.3878 16.5307 75.8798 16.4001 74.825 16.4001Z" fill="#1C1E23"/>
<path d="M88.5603 16.5949H84.6231V22.4682C84.6231 23.8761 84.7262 24.8011 84.9323 25.2432C85.1411 25.6867 85.6299 25.9064 86.4048 25.9064L88.6084 25.7593L88.7337 27.2825C87.8993 27.4355 87.0545 27.5263 86.2064 27.554C84.9197 27.554 84.0286 27.2424 83.5328 26.6193C83.0371 25.9962 82.79 24.8087 82.7914 23.0568V16.5949H81.041V14.9992H82.7997V11.2397H84.6315V14.9992H88.5603V16.5949Z" fill="#1C1E23"/>
<path d="M91.1419 13.4303V11.2916H92.9988V13.4303H91.1419ZM91.1419 27.4338V14.9992H92.9988V27.4338H91.1419Z" fill="#1C1E23"/>
<path d="M101.042 14.7525C101.97 14.7918 102.893 14.8908 103.808 15.0489L104.401 15.1214L104.328 16.6198C103.357 16.4978 102.381 16.4245 101.404 16.4001C100 16.4001 99.0469 16.7317 98.5442 17.3949C98.0416 18.0581 97.7895 19.2863 97.7881 21.0797C97.7881 22.8758 98.0235 24.1248 98.4941 24.8267C98.9648 25.5285 99.9464 25.8808 101.439 25.8836L104.363 25.6639L104.439 27.1872C103.3 27.3785 102.15 27.4934 100.996 27.5312C99.0664 27.5312 97.7338 27.0393 96.9986 26.0556C96.2634 25.0719 95.8958 23.414 95.8958 21.0818C95.8958 18.7482 96.2919 17.1103 97.0842 16.168C97.8765 15.2257 99.1959 14.7539 101.042 14.7525Z" fill="#1C1E23"/>
</g>
<defs>
<clipPath id="clip0_146_1185">
<rect width="104.134" height="38.7464" fill="white"/>
</clipPath>
</defs>
</svg>
