<svg width="111" height="39" viewBox="0 0 111 39" fill="none" xmlns="http://www.w3.org/2000/svg">
<g clip-path="url(#clip0_146_1236)">
<path d="M80.08 11.343H77.9061V27.4921H86.7254V25.4867H80.08V11.343ZM95.1204 24.6599C94.5725 25.2228 93.6535 25.7857 92.4163 25.7857C90.755 25.7857 90.0834 24.9765 90.0834 23.9034C90.0834 22.3026 91.1968 21.5285 93.5828 21.5285C94.0246 21.5285 94.7493 21.5813 95.1204 21.6517V24.6599ZM92.8758 14.8789C91.1085 14.8789 89.5001 15.4946 88.2453 16.5325L89.023 17.8695C89.9067 17.3593 91.0024 16.8316 92.5754 16.8316C94.3604 16.8316 95.1558 17.7463 95.1558 19.2768V20.0684C94.8023 19.9981 94.0953 19.9453 93.6358 19.9453C89.8183 19.9453 87.8918 21.2823 87.8918 24.0617C87.8918 26.5598 89.4295 27.8088 91.7624 27.8088C93.3354 27.8088 94.8376 27.0875 95.3502 25.9265L95.739 27.5097H97.2766V19.2416C97.2589 16.6205 96.1101 14.8789 92.8758 14.8789ZM104.293 25.8737C103.48 25.8737 102.755 25.7681 102.208 25.5218V18.063C102.95 17.4473 103.869 17.0075 105.035 17.0075C107.139 17.0075 107.952 18.4852 107.952 20.8777C107.969 24.2728 106.644 25.8737 104.293 25.8737ZM105.212 14.8789C103.268 14.8789 102.208 16.1983 102.208 16.1983V14.1049V11.343H100.069V27.1051C101.13 27.5449 102.596 27.7912 104.187 27.7912C108.252 27.7912 110.214 25.2052 110.214 20.7369C110.214 17.2186 108.411 14.8789 105.212 14.8789ZM56.3618 13.1022C58.2882 13.1022 59.5431 13.7355 60.3561 14.3863L61.2928 12.7679C60.0203 11.6596 58.2882 11.0615 56.4678 11.0615C51.8373 11.0615 48.5853 13.8762 48.5853 19.5407C48.5853 25.4867 52.0847 27.8088 56.0967 27.8088C58.1115 27.8088 59.8082 27.3338 60.9216 26.8764L60.8686 20.5258V18.5028H54.9125V20.5082H58.7124L58.7654 25.3283C58.2706 25.5746 57.4046 25.7681 56.2381 25.7681C53.0215 25.7681 50.8652 23.7451 50.8652 19.5055C50.8652 15.1956 53.0921 13.1022 56.3618 13.1022ZM71.7026 11.343H69.5641V14.0521V23.4284C69.5641 26.0496 70.7129 27.7912 73.9472 27.7912C74.3891 27.7912 74.8309 27.756 75.2551 27.668V25.7681C74.9546 25.8209 74.6188 25.8385 74.2653 25.8385C72.4803 25.8385 71.685 24.9237 71.685 23.3933V16.9371H75.2551V15.178H71.685L71.7026 11.343ZM64.1559 27.4921H66.2945V15.178H64.1559V27.4921ZM64.1559 13.4716H66.2945V11.343H64.1559V13.4716Z" fill="#888F9B"/>
<path d="M19.3704 37.1325L26.5106 15.2837H12.2302L19.3704 37.1325Z" fill="#D74B3A"/>
<path d="M19.3702 37.1325L12.23 15.2837H2.24432L19.3702 37.1325Z" fill="#F36F3C"/>
<path d="M2.24464 15.2837L0.0707688 21.9157C-0.123643 22.5139 0.0884426 23.1823 0.600982 23.5518L19.3529 37.1149L2.24464 15.2837Z" fill="#F3993F"/>
<path d="M2.24432 15.2834H12.2477L7.93528 2.12491C7.7232 1.43883 6.75114 1.43883 6.53905 2.12491L2.24432 15.2834Z" fill="#D74B3A"/>
<path d="M19.3705 37.1325L26.5107 15.2837H36.5141L19.3705 37.1325Z" fill="#F36F3C"/>
<path d="M36.4966 15.2837L38.6705 21.9157C38.8649 22.5139 38.6528 23.1823 38.1403 23.5518L19.3884 37.1149L36.4966 15.2837Z" fill="#F3993F"/>
<path d="M36.4964 15.2829H26.493L30.7877 2.12441C31.0175 1.45593 31.9719 1.45593 32.1839 2.12441L36.4964 15.2829Z" fill="#D74B3A"/>
</g>
<defs>
<clipPath id="clip0_146_1236">
<rect width="110.642" height="38.7464" fill="white"/>
</clipPath>
</defs>
</svg>
