<svg width="159" height="42" viewBox="0 0 159 42" fill="none" xmlns="http://www.w3.org/2000/svg">
<g clip-path="url(#clip0_146_1259)">
<path fill-rule="evenodd" clip-rule="evenodd" d="M48.0983 30.0819C47.5172 29.8621 47.1368 29.3967 47.1368 28.7762C47.1368 28.0251 47.7622 27.4059 48.523 27.4059C48.7471 27.4059 48.9269 27.4499 49.0833 27.5158C50.1209 27.9905 51.2513 28.2324 52.3939 28.2242C54.7221 28.2242 55.8178 27.1189 55.8178 24.9937V24.4184C54.8107 25.6142 53.715 26.3446 51.9027 26.3446C49.1054 26.3446 46.5765 24.3305 46.5765 20.8117V20.769C46.5765 17.2282 49.1497 15.2374 51.9027 15.2374C53.7593 15.2374 54.855 16.013 55.7722 17.0084V16.9851C55.7722 16.0776 56.5331 15.3266 57.4738 15.3266C58.4118 15.3266 59.1727 16.0776 59.1727 17.0071V24.6407C59.1727 26.7647 58.6594 28.3121 57.6523 29.3075C56.5331 30.4154 54.8107 30.9015 52.4838 30.9015C50.9821 30.9146 49.4923 30.6361 48.0983 30.0819ZM55.8178 20.8129V20.769C55.8178 19.1531 54.541 18.0245 52.8864 18.0245C51.2317 18.0245 49.9783 19.1531 49.9783 20.769V20.8129C49.9783 22.4496 51.2317 23.5561 52.8864 23.5561C54.541 23.5561 55.8178 22.4276 55.8178 20.8129ZM61.0984 17.0071C61.0984 16.0776 61.8592 15.3266 62.7986 15.3266C63.7393 15.3266 64.4989 16.0776 64.4989 17.0071V17.5371C64.9914 16.3879 65.7965 15.3266 66.8049 15.3266C67.8564 15.3266 68.4596 16.0117 68.4596 16.9632C68.4596 17.8474 67.8785 18.3787 67.1841 18.5338C65.4617 18.9333 64.5002 20.2377 64.5002 22.6267V25.768C64.5002 26.6975 63.7393 27.4499 62.7986 27.4499C62.5757 27.4504 62.3549 27.4073 62.1489 27.3231C61.9428 27.2389 61.7554 27.1152 61.5975 26.9592C61.4396 26.8031 61.3143 26.6177 61.2286 26.4135C61.143 26.2094 61.0987 25.9905 61.0984 25.7693V17.0071ZM68.057 23.9104V23.8664C68.057 21.277 70.0478 20.0826 72.8907 20.0826C74.0984 20.0826 74.9714 20.2816 75.8221 20.5686V20.3695C75.8221 18.9773 74.9492 18.2016 73.249 18.2016C72.453 18.1932 71.6605 18.3052 70.8986 18.5338C70.7413 18.5917 70.5751 18.6219 70.4074 18.623C70.2235 18.6265 70.0408 18.5935 69.8699 18.5261C69.699 18.4586 69.5434 18.358 69.4121 18.2302C69.2809 18.1024 69.1766 17.9499 69.1054 17.7816C69.0343 17.6133 68.9977 17.4326 68.9977 17.2502C68.9977 16.6529 69.3755 16.1449 69.9149 15.9445C70.9885 15.5463 72.1519 15.3266 73.7401 15.3266C75.5967 15.3266 76.94 15.8126 77.7895 16.6529C78.6845 17.5371 79.0884 18.8441 79.0884 20.4368V25.8339C79.0884 26.7415 78.3497 27.4499 77.4325 27.4499C76.4475 27.4499 75.7987 26.7647 75.7987 26.0563V26.033C74.9714 26.9405 73.8313 27.5378 72.1741 27.5378C69.9149 27.5378 68.057 26.2554 68.057 23.9104ZM75.8664 23.1347V22.5388C75.1826 22.2406 74.4428 22.0895 73.6958 22.0953C72.2405 22.0953 71.3468 22.6706 71.3468 23.7332V23.7772C71.3468 24.6847 72.1076 25.216 73.2034 25.216C74.7929 25.216 75.8664 24.3525 75.8664 23.1347ZM80.9007 17.0071C80.9007 16.0776 81.6616 15.3266 82.6023 15.3266C83.5417 15.3266 84.3025 16.0776 84.3025 17.0071V17.1403C85.0843 16.1449 86.1148 15.2374 87.8372 15.2374C89.4033 15.2374 90.5889 15.9225 91.2156 17.1183C92.267 15.9018 93.5217 15.2374 95.1529 15.2374C97.6817 15.2374 99.2048 16.7421 99.2048 19.5965V25.768C99.2048 26.6975 98.4426 27.4499 97.5032 27.4499C97.2803 27.4504 97.0595 27.4073 96.8533 27.3231C96.6471 27.239 96.4597 27.1153 96.3017 26.9593C96.1437 26.8032 96.0182 26.6178 95.9324 26.4136C95.8466 26.2095 95.8022 25.9905 95.8017 25.7693V20.7018C95.8017 19.1091 95.0851 18.2908 93.8109 18.2908C92.5354 18.2908 91.7524 19.1091 91.7524 20.7018V25.7693C91.7524 26.6975 90.9928 27.4499 90.0521 27.4499C89.6021 27.4506 89.1702 27.2739 88.8514 26.9588C88.5326 26.6437 88.3529 26.2158 88.3519 25.7693V20.7018C88.3519 19.1091 87.6353 18.2908 86.3611 18.2908C85.0843 18.2908 84.3025 19.1091 84.3025 20.7018V25.7693C84.3025 26.6975 83.5417 27.4499 82.6023 27.4499C82.3793 27.4506 82.1584 27.4076 81.9521 27.3235C81.7459 27.2394 81.5584 27.1157 81.4003 26.9596C81.2423 26.8035 81.1168 26.6181 81.0311 26.4138C80.9454 26.2096 80.9011 25.9906 80.9007 25.7693V17.0071ZM101.039 17.0071C101.039 16.0776 101.8 15.3266 102.739 15.3266C103.68 15.3266 104.441 16.0776 104.441 17.0071V17.1403C105.223 16.1449 106.252 15.2374 107.976 15.2374C109.542 15.2374 110.727 15.9225 111.354 17.1183C112.406 15.9018 113.659 15.2374 115.291 15.2374C117.82 15.2374 119.342 16.7421 119.342 19.5965V25.768C119.342 26.6975 118.581 27.4499 117.64 27.4499C117.19 27.4506 116.759 27.2739 116.44 26.9588C116.121 26.6437 115.941 26.2158 115.94 25.7693V20.7018C115.94 19.1091 115.224 18.2908 113.949 18.2908C112.673 18.2908 111.891 19.1091 111.891 20.7018V25.7693C111.891 26.6975 111.13 27.4499 110.191 27.4499C109.968 27.4504 109.747 27.4073 109.541 27.3231C109.335 27.2389 109.147 27.1152 108.99 26.9592C108.832 26.8031 108.706 26.6177 108.621 26.4135C108.535 26.2094 108.491 25.9905 108.49 25.7693V20.7018C108.49 19.1091 107.774 18.2908 106.498 18.2908C105.223 18.2908 104.44 19.1091 104.44 20.7018V25.7693C104.44 26.6975 103.68 27.4499 102.739 27.4499C102.517 27.4504 102.296 27.4073 102.09 27.3231C101.884 27.2389 101.696 27.1152 101.538 26.9592C101.38 26.8031 101.255 26.6177 101.169 26.4135C101.084 26.2094 101.04 25.9905 101.039 25.7693V17.0071ZM120.461 23.9104V23.8664C120.461 21.277 122.453 20.0826 125.295 20.0826C126.293 20.0736 127.284 20.2381 128.225 20.5686V20.3695C128.225 18.9773 127.352 18.2016 125.652 18.2016C124.712 18.2016 123.952 18.3348 123.303 18.5338C123.145 18.5917 122.979 18.6219 122.812 18.623C122.628 18.6268 122.445 18.5941 122.273 18.5268C122.102 18.4595 121.946 18.3589 121.815 18.2311C121.684 18.1032 121.579 17.9505 121.508 17.7821C121.437 17.6137 121.4 17.4328 121.401 17.2502C121.401 16.6529 121.782 16.1449 122.318 15.9445C123.393 15.5463 124.556 15.3266 126.144 15.3266C128.002 15.3266 129.344 15.8126 130.194 16.6529C131.089 17.5371 131.491 18.8441 131.491 20.4368V25.8339C131.491 26.0483 131.448 26.2606 131.365 26.4584C131.281 26.6561 131.159 26.8354 131.005 26.9858C130.851 27.1362 130.668 27.2547 130.468 27.3344C130.267 27.414 130.053 27.4533 129.837 27.4499C128.852 27.4499 128.203 26.7647 128.203 26.0563V26.033C127.376 26.9405 126.233 27.5378 124.578 27.5378C122.318 27.5378 120.461 26.2554 120.461 23.9104ZM128.271 23.1347V22.5388C127.587 22.2407 126.847 22.0895 126.1 22.0953C124.645 22.0953 123.751 22.6706 123.751 23.7332V23.7772C123.751 24.6847 124.511 25.216 125.608 25.216C127.196 25.216 128.271 24.3525 128.271 23.1347ZM133.305 17.0071C133.305 16.0776 134.066 15.3266 135.005 15.3266C135.946 15.3266 136.705 16.0776 136.705 17.0071V17.5371C137.198 16.3879 138.003 15.3266 139.011 15.3266C140.062 15.3266 140.666 16.0117 140.666 16.9632C140.666 17.8474 140.084 18.3787 139.391 18.5338C137.668 18.9333 136.705 20.2377 136.705 22.6267V25.768C136.705 26.6975 135.946 27.4499 135.005 27.4499C134.555 27.4506 134.123 27.2739 133.804 26.9588C133.486 26.6437 133.306 26.2158 133.305 25.7693V17.0071ZM141.695 12.7152C141.695 11.7845 142.456 11.0347 143.396 11.0347C144.336 11.0347 145.097 11.7845 145.097 12.7152V25.768C145.097 26.6975 144.336 27.4499 143.396 27.4499C142.946 27.4506 142.514 27.2739 142.195 26.9588C141.876 26.6437 141.696 26.2158 141.695 25.7693V12.7139V12.7152ZM147.805 30.6132C147.312 30.4374 146.73 30.0379 146.73 29.2209C146.726 29.043 146.758 28.866 146.823 28.7004C146.889 28.5347 146.987 28.3837 147.112 28.256C147.237 28.1282 147.386 28.0264 147.551 27.9564C147.716 27.8864 147.894 27.8495 148.073 27.848C148.341 27.848 148.498 27.892 148.632 27.9372C148.922 28.0251 149.102 28.0704 149.348 28.0704C149.952 28.0704 150.244 27.9592 150.556 27.362L150.668 27.0957L146.575 17.7155C146.472 17.4685 146.412 17.2065 146.395 16.9399C146.395 15.9897 147.134 15.3266 148.073 15.3266C148.922 15.3266 149.415 15.7907 149.705 16.587L152.302 23.4902L154.808 16.609C155.076 15.9018 155.567 15.3266 156.441 15.3266C157.313 15.3266 158.05 15.9897 158.05 16.8753C158.05 17.1403 157.962 17.5165 157.895 17.6716L153.71 27.605C152.703 30.016 151.698 30.9235 149.661 30.9235C148.9 30.9235 148.364 30.8136 147.805 30.6132Z" fill="#4C4C4C"/>
<path fill-rule="evenodd" clip-rule="evenodd" d="M37.1658 21.3745C37.1658 31.5225 28.8456 39.7495 18.5829 39.7495C8.32015 39.7495 0 31.5225 0 21.3745C0 11.2265 8.32015 2.99951 18.5829 2.99951C28.8456 2.99951 37.1658 11.2265 37.1658 21.3745Z" fill="#15C39A"/>
<path fill-rule="evenodd" clip-rule="evenodd" d="M21.0118 25.3425C21.1213 25.9437 21.6932 26.3561 22.3121 26.3561H24.2586L25.3869 26.2009C23.5811 28.82 20.4464 30.0248 17.0185 29.4935C14.2278 29.0605 11.8305 27.1925 10.8182 24.585C8.52249 18.6655 12.8936 13.015 18.5911 13.015C21.5603 13.015 24.1635 14.733 25.6566 16.8079C26.0526 17.3728 26.8396 17.5796 27.4115 17.1879C27.6714 17.0133 27.8546 16.7473 27.9243 16.4437C27.994 16.1401 27.9448 15.8216 27.7868 15.5526C26.7285 13.9175 25.2464 12.595 23.4957 11.7238C21.745 10.8527 19.7904 10.465 17.8367 10.6014C12.4038 10.9621 8.00656 15.3587 7.69387 20.7339C7.33167 26.9908 12.349 32.0971 18.5911 32.0971C20.1475 32.1035 21.6869 31.7766 23.1044 31.1388C24.5218 30.5009 25.7839 29.5671 26.8044 28.4012L26.5673 29.712V30.8962C26.5673 31.5063 26.9842 32.0725 27.5926 32.1811C27.7743 32.2151 27.9613 32.209 28.1403 32.1632C28.3193 32.1174 28.4859 32.0331 28.6284 31.9163C28.7709 31.7995 28.8857 31.653 28.9648 31.4872C29.0438 31.3214 29.0851 31.1403 29.0857 30.9569V23.8649H22.2496C22.0646 23.8646 21.8819 23.9048 21.7144 23.9826C21.547 24.0604 21.3988 24.1739 21.2806 24.315C21.1624 24.4562 21.077 24.6214 21.0306 24.799C20.9841 24.9766 20.9777 25.1622 21.0118 25.3425Z" fill="white"/>
</g>
<defs>
<clipPath id="clip0_146_1259">
<rect width="158.735" height="42" fill="white"/>
</clipPath>
</defs>
</svg>
