<svg width="134" height="39" viewBox="0 0 134 39" fill="none" xmlns="http://www.w3.org/2000/svg">
<g clip-path="url(#clip0_146_1305)">
<path d="M133.305 17.6244V15.2983H130.394V11.682L130.296 11.712L127.562 12.5421L127.508 12.5584V15.2984H123.192V13.772C123.192 13.0612 123.352 12.5173 123.668 12.1545C123.981 11.7962 124.429 11.614 125.001 11.614C125.412 11.614 125.838 11.71 126.267 11.8995L126.374 11.9471V9.49739L126.323 9.47897C125.924 9.33643 125.38 9.26465 124.706 9.26465C123.857 9.26465 123.086 9.448 122.413 9.81138C121.74 10.1753 121.21 10.6948 120.839 11.3552C120.469 12.015 120.282 12.7769 120.282 13.6201V15.2983H118.254V17.6244H120.282V27.4241H123.192V17.6244H127.508V23.8519C127.508 26.4167 128.727 27.7164 131.132 27.7164C131.527 27.7164 131.943 27.6705 132.367 27.5805C132.799 27.4882 133.094 27.3959 133.267 27.2974L133.305 27.2749V24.9272L133.187 25.0049C133.029 25.1093 132.832 25.1946 132.602 25.2581C132.37 25.3227 132.177 25.3551 132.027 25.3551C131.464 25.3551 131.047 25.2045 130.788 24.9073C130.527 24.6074 130.394 24.0829 130.394 23.3492V17.6244H133.305ZM111.756 25.3555C110.699 25.3555 109.867 25.008 109.28 24.3234C108.689 23.6354 108.39 22.6546 108.39 21.4083C108.39 20.1225 108.689 19.1162 109.28 18.4161C109.867 17.7205 110.692 17.3675 111.732 17.3675C112.741 17.3675 113.544 17.7047 114.12 18.3701C114.698 19.0391 114.991 20.0373 114.991 21.3381C114.991 22.6548 114.715 23.6663 114.171 24.3429C113.631 25.0144 112.818 25.3555 111.756 25.3555ZM111.885 15.0062C109.87 15.0062 108.269 15.5921 107.128 16.7476C105.988 17.9032 105.409 19.5025 105.409 21.5013C105.409 23.3999 105.974 24.927 107.087 26.0395C108.201 27.1524 109.716 27.7162 111.59 27.7162C113.544 27.7162 115.113 27.1221 116.253 25.9506C117.394 24.7803 117.972 23.1962 117.972 21.244C117.972 19.3158 117.429 17.7773 116.36 16.6722C115.289 15.5666 113.783 15.0062 111.885 15.0062ZM100.717 15.0062C99.3467 15.0062 98.2128 15.3541 97.3466 16.04C96.4751 16.7301 96.0331 17.6351 96.0331 18.7302C96.0331 19.2994 96.1285 19.8051 96.3163 20.234C96.5052 20.6643 96.7975 21.0432 97.1859 21.3611C97.5714 21.6765 98.1664 22.0069 98.9548 22.343C99.6176 22.6136 100.112 22.8425 100.426 23.0229C100.733 23.1998 100.951 23.3775 101.074 23.5506C101.193 23.72 101.254 23.9519 101.254 24.238C101.254 25.0526 100.639 25.449 99.3738 25.449C98.9045 25.449 98.3692 25.3518 97.7828 25.1601C97.2007 24.9713 96.6512 24.6949 96.1537 24.3404L96.0328 24.2545V27.0345L96.0772 27.0549C96.4889 27.2435 97.0081 27.4026 97.62 27.5277C98.2307 27.653 98.7856 27.7167 99.2676 27.7167C100.755 27.7167 101.953 27.3671 102.827 26.6771C103.707 25.9823 104.152 25.0559 104.152 23.9229C104.152 23.1056 103.912 22.4047 103.439 21.8394C102.97 21.2787 102.154 20.764 101.017 20.309C100.111 19.9482 99.5306 19.6486 99.2911 19.4187C99.0603 19.1966 98.943 18.8825 98.943 18.4847C98.943 18.132 99.0877 17.8495 99.3847 17.6207C99.684 17.3908 100.101 17.2739 100.623 17.2739C101.108 17.2739 101.604 17.3499 102.098 17.4988C102.59 17.6477 103.024 17.8472 103.385 18.0912L103.504 18.1718V15.5347L103.458 15.5153C103.125 15.3734 102.685 15.252 102.151 15.1535C101.619 15.0556 101.137 15.0062 100.717 15.0062ZM88.4466 25.3555C87.3906 25.3555 86.5576 25.008 85.9708 24.3234C85.3802 23.6354 85.0816 22.6548 85.0816 21.4083C85.0816 20.1225 85.3806 19.1162 85.9715 18.4161C86.5582 17.7205 87.3829 17.3675 88.4233 17.3675C89.4319 17.3675 90.2352 17.7047 90.8107 18.3701C91.3891 19.0391 91.6824 20.0373 91.6824 21.3381C91.6824 22.6548 91.4064 23.6663 90.8622 24.3429C90.3217 25.0144 89.5094 25.3555 88.4466 25.3555ZM88.5763 15.0062C86.5607 15.0062 84.96 15.5921 83.8194 16.7476C82.6789 17.9032 82.1003 19.5025 82.1003 21.5013C82.1003 23.4006 82.6651 24.927 83.7785 26.0395C84.8919 27.1524 86.407 27.7162 88.2816 27.7162C90.2347 27.7162 91.8038 27.1221 92.9445 25.9506C94.0848 24.7803 94.6629 23.1962 94.6629 21.244C94.6629 19.3158 94.1206 17.7773 93.0504 16.6722C91.9797 15.5666 90.4743 15.0062 88.5763 15.0062ZM77.6829 17.3982V15.2983H74.8082V27.4238H77.6829V21.2211C77.6829 20.1664 77.9239 19.3 78.3994 18.6455C78.869 17.9988 79.4947 17.6711 80.2586 17.6711C80.5175 17.6711 80.8082 17.7135 81.1229 17.7973C81.4345 17.8806 81.6602 17.9711 81.7933 18.0663L81.9141 18.1531V15.2776L81.8675 15.2577C81.5998 15.1449 81.2211 15.0879 80.7419 15.0879C80.0195 15.0879 79.373 15.3183 78.8193 15.7717C78.3333 16.1703 77.982 16.7168 77.7134 17.3982H77.6829ZM69.6603 15.0062C68.3415 15.0062 67.1651 15.2868 66.1646 15.8399C65.162 16.3943 64.3866 17.1858 63.859 18.1923C63.3338 19.1963 63.0671 20.3691 63.0671 21.677C63.0671 22.8227 63.3257 23.8741 63.8367 24.8007C64.348 25.7288 65.0717 26.455 65.9878 26.9586C66.9026 27.4615 67.9599 27.7166 69.1305 27.7166C70.4967 27.7166 71.663 27.4456 72.5982 26.9111L72.636 26.8896V24.2765L72.5152 24.364C72.0916 24.6702 71.6182 24.9146 71.1088 25.0906C70.6007 25.2666 70.1375 25.3555 69.7313 25.3555C68.6034 25.3555 67.6978 25.0053 67.0406 24.3149C66.3819 23.6235 66.0479 22.6528 66.0479 21.4312C66.0479 20.202 66.3962 19.2063 67.0826 18.4716C67.767 17.7391 68.6742 17.3675 69.7788 17.3675C70.7236 17.3675 71.6443 17.685 72.5154 18.3119L72.636 18.3988V15.6454L72.597 15.6237C72.2692 15.4416 71.8222 15.2913 71.2672 15.1773C70.7145 15.0635 70.1739 15.0062 69.6603 15.0062ZM61.0873 15.2984H58.2127V27.4238H61.0873V15.2984ZM59.6794 10.1329C59.2063 10.1329 58.7936 10.2927 58.4546 10.6094C58.1141 10.927 57.9415 11.3268 57.9415 11.7987C57.9415 12.2632 58.1121 12.6557 58.4493 12.9649C58.7843 13.2731 59.1983 13.4293 59.6795 13.4293C60.1606 13.4293 60.5761 13.2731 60.9151 12.9654C61.2564 12.6557 61.4294 12.2633 61.4294 11.7987C61.4294 11.3433 61.261 10.9476 60.9292 10.6222C60.5977 10.2975 60.177 10.1329 59.6794 10.1329ZM52.507 14.4038V27.4238H55.4407V10.5041H51.3803L46.2193 23.0716L41.2109 10.5041H36.9852V27.4237H39.7421V14.4025H39.8368L45.1256 27.4238H47.2061L52.4123 14.4038H52.507Z" fill="#706D6E"/>
<path d="M13.5231 18.268H0V4.8501H13.5231V18.268Z" fill="#F1511B"/>
<path d="M28.4543 18.268H14.9314V4.8501H28.4543V18.268Z" fill="#80CC28"/>
<path d="M13.5227 33.0882H0V19.6704H13.5227V33.0882Z" fill="#00ADEF"/>
<path d="M28.4543 33.0882H14.9314V19.6704H28.4543V33.0882Z" fill="#FBBC09"/>
</g>
<defs>
<clipPath id="clip0_146_1305">
<rect width="133.421" height="38.7464" fill="white"/>
</clipPath>
</defs>
</svg>
