<svg width="121" height="39" viewBox="0 0 121 39" fill="none" xmlns="http://www.w3.org/2000/svg">
<g clip-path="url(#clip0_146_1319)">
<path d="M29.3071 27.0249C29.2545 27.3112 29.1208 27.5767 28.9215 27.7902L22.7515 33.9123C22.7261 33.9625 22.6911 34.0073 22.6483 34.0441C22.6056 34.0809 22.5559 34.109 22.5022 34.1268C22.4485 34.1446 22.3918 34.1516 22.3353 34.1477C22.2788 34.1437 22.2237 34.1287 22.173 34.1036C22.1224 34.0785 22.0772 34.0437 22.0401 34.0012C22.003 33.9588 21.9747 33.9095 21.9568 33.8562C21.9389 33.8029 21.9318 33.7467 21.9358 33.6906C21.9398 33.6346 21.9549 33.5799 21.9802 33.5296V20.1376L29.3071 12.8677V27.0249Z" fill="#E34B5F"/>
<path d="M24.294 7.89288C24.294 7.7914 24.2534 7.69408 24.1811 7.62232C24.1088 7.55057 24.0107 7.51025 23.9084 7.51025C23.8061 7.51025 23.708 7.55057 23.6357 7.62232C23.5634 7.69408 23.5228 7.7914 23.5228 7.89288L14.6533 17.076V27.407L21.9803 20.137L29.3072 12.8671L24.294 7.89288Z" fill="#E7CE9C"/>
<path d="M0 27.0249C0.0526103 27.3112 0.186381 27.5767 0.385628 27.7902L6.55568 33.9123C6.60682 34.0137 6.69649 34.0909 6.80497 34.1268C6.91345 34.1627 7.03185 34.1543 7.13412 34.1036C7.2364 34.0528 7.31417 33.9639 7.35033 33.8562C7.38649 33.7486 7.37807 33.6311 7.32694 33.5296V20.1376L0 12.8677V27.0249Z" fill="#1E7889"/>
<path d="M5.78442 7.89288C5.78442 7.7914 5.74379 7.69408 5.67147 7.62232C5.59915 7.55057 5.50107 7.51025 5.39879 7.51025C5.29652 7.51025 5.19843 7.55057 5.12611 7.62232C5.05379 7.69408 5.01317 7.7914 5.01317 7.89288L0 12.8671L7.32693 20.137L14.6539 27.407V17.076L5.78442 7.89288Z" fill="#97BAA6"/>
<path d="M38.563 27.0247V13.6327H42.0336V15.1632C42.4113 14.4995 42.9801 13.9628 43.6671 13.622C44.3542 13.2811 45.1282 13.1516 45.8899 13.2501C46.6187 13.3037 47.3212 13.5432 47.9293 13.9455C48.5374 14.3477 49.0304 14.899 49.3606 15.5459C50.9031 14.0153 52.06 13.2501 53.6025 13.2501C56.6875 13.2501 58.6157 14.7806 58.6157 18.2243V27.0247H54.7594V19.7548C54.7594 17.8416 54.3737 17.0764 52.8312 17.0764C51.2887 17.0764 50.5175 17.8416 50.5175 19.7548V27.0247H46.2756V19.7548C46.2756 17.8416 45.8899 17.0764 44.733 17.0764C43.5762 17.0764 42.4193 17.8416 42.4193 19.7548V27.0247H38.563ZM63.2432 15.1632C64.2648 14.2097 65.5407 13.5671 66.9194 13.3118C68.2982 13.0566 69.7218 13.1993 71.0212 13.7231C72.3206 14.2468 73.4412 15.1297 74.2499 16.2667C75.0586 17.4037 75.5214 18.7471 75.5833 20.1374C75.611 21.052 75.4548 21.963 75.1238 22.817C74.7927 23.6711 74.2935 24.4511 73.6552 25.1116C72.9791 25.8626 72.1453 26.4573 71.2126 26.854C70.2798 27.2507 69.2707 27.4395 68.2564 27.4074C67.3028 27.4095 66.3601 27.2052 65.4943 26.8087C64.6285 26.4122 63.8602 25.833 63.2432 25.1116C62.6049 24.4511 62.1056 23.6711 61.7746 22.817C61.4435 21.963 61.2873 21.052 61.3151 20.1374C61.2873 19.2228 61.4435 18.3118 61.7746 17.4578C62.1056 16.6037 62.6049 15.8237 63.2432 15.1632ZM68.2564 23.5811C69.1768 23.5811 70.0596 23.2183 70.7105 22.5724C71.3614 21.9266 71.727 21.0507 71.727 20.1374C71.727 19.2748 71.3817 18.4476 70.767 17.8376C70.1522 17.2277 69.3185 16.8851 68.4492 16.8851C67.5798 16.8851 66.7461 17.2277 66.1314 17.8376C65.5167 18.4476 65.1713 19.2748 65.1713 20.1374C65.166 20.9881 65.4783 21.8107 66.0479 22.4466C66.6176 23.0824 67.4043 23.4866 68.2564 23.5811ZM78.2827 27.0247V13.6327H82.139V15.1632C82.9102 14.0153 84.0671 13.2501 85.9953 13.2501C88.6947 13.2501 90.6228 15.1632 90.6228 18.2243V27.0247H86.7665V19.7548C86.7665 17.8416 86.3809 17.0764 84.8384 17.0764C83.2959 17.0764 82.139 17.8416 82.139 19.7548V27.0247H78.2827ZM107.59 15.1632C108.612 14.2097 109.888 13.5671 111.267 13.3118C112.645 13.0566 114.069 13.1993 115.368 13.7231C116.668 14.2468 117.788 15.1297 118.597 16.2667C119.406 17.4037 119.869 18.7471 119.931 20.1374C119.958 21.052 119.802 21.963 119.471 22.817C119.14 23.6711 118.641 24.4511 118.002 25.1116C117.37 25.8142 116.598 26.3804 115.736 26.7753C114.873 27.1702 113.939 27.3853 112.989 27.4074C111.971 27.4676 110.953 27.2915 110.016 26.893C109.079 26.4944 108.248 25.8845 107.59 25.1116C106.952 24.4511 106.453 23.6711 106.122 22.817C105.791 21.963 105.635 21.052 105.662 20.1374C105.635 19.2228 105.791 18.3118 106.122 17.4578C106.453 16.6037 106.952 15.8237 107.59 15.1632ZM112.989 23.5811C113.841 23.4866 114.628 23.0824 115.198 22.4466C115.767 21.8107 116.08 20.9881 116.074 20.1374C116.074 19.2748 115.729 18.4476 115.114 17.8376C114.499 17.2277 113.666 16.8851 112.796 16.8851C111.927 16.8851 111.093 17.2277 110.479 17.8376C109.864 18.4476 109.519 19.2748 109.519 20.1374C109.519 21.0507 109.884 21.9266 110.535 22.5724C111.186 23.2183 112.069 23.5811 112.989 23.5811ZM93.7078 27.0247V24.3463L99.1066 17.0764H93.7078V13.6327H103.734V16.6937L98.721 23.5811H103.734V27.0247H93.7078Z" fill="black"/>
</g>
<defs>
<clipPath id="clip0_146_1319">
<rect width="120.404" height="38.7464" fill="white"/>
</clipPath>
</defs>
</svg>
