<svg width="110" height="39" viewBox="0 0 110 39" fill="none" xmlns="http://www.w3.org/2000/svg">
<g clip-path="url(#clip0_146_1329)">
<path fill-rule="evenodd" clip-rule="evenodd" d="M11.4578 19.8727C11.4578 14.297 10.5146 11.9857 7.92149 11.9857C5.63447 11.9857 4.47927 13.606 4.47927 19.2295C4.47927 24.7812 5.37516 27.0689 8.01572 27.0689C10.3497 27.0689 11.4578 25.4722 11.4578 19.8727ZM0 19.7298C0 13.4629 4.26708 10.985 8.06301 10.985C12.1179 10.985 15.937 13.4393 15.937 19.3485C15.937 25.6628 11.6699 28.0696 7.87401 28.0696C3.81931 28.0696 0 25.4486 0 19.7298Z" fill="#147BD1"/>
<path fill-rule="evenodd" clip-rule="evenodd" d="M35.1381 20.1348L39.1694 19.9204C39.1694 17.0373 38.7925 15.9888 37.3778 15.9888C36.1753 15.9888 35.2323 17.1325 35.1381 20.1348ZM31.4132 21.5406C31.4132 17.3946 34.4542 15.0833 37.5662 15.0833C40.7818 15.0833 42.7997 16.6889 42.9146 20.8897C42.9169 20.9714 42.8512 21.0403 42.77 21.0403H35.2861C35.2049 21.0403 35.1393 21.1092 35.1413 21.191C35.2468 24.9759 36.7019 26.0204 39.0987 26.0204C40.2686 26.0204 41.2118 25.7457 42.0011 25.3918C42.0593 25.3657 42.1267 25.381 42.1682 25.4301L42.4817 25.8028C42.529 25.859 42.5284 25.9422 42.4784 25.9957C41.6184 26.9123 39.8676 28.0696 37.5662 28.0696C33.4641 28.0696 31.4132 25.5915 31.4132 21.5406Z" fill="#147BD1"/>
<path fill-rule="evenodd" clip-rule="evenodd" d="M79.9603 21.7313C79.9603 16.9181 79.041 16.0126 77.4377 16.0126C75.9523 16.0126 75.0802 17.1087 75.0802 21.2072C75.0802 26.092 75.8581 27.1402 77.579 27.1402C78.9939 27.1402 79.9603 26.3063 79.9603 21.7313ZM71.1195 21.6123C71.1195 17.0371 74.3256 15.0833 77.5085 15.0833C80.927 15.0833 83.9211 17.1563 83.9211 21.493C83.9211 26.068 80.7619 28.0698 77.5085 28.0698C74.09 28.0698 71.1195 25.9726 71.1195 21.6123Z" fill="#147BD1"/>
<path fill-rule="evenodd" clip-rule="evenodd" d="M94.0223 21.7313C94.0223 16.9181 93.103 16.0126 91.4997 16.0126C90.0143 16.0126 89.1422 17.1087 89.1422 21.2072C89.1422 26.092 89.9203 27.1402 91.6412 27.1402C93.0559 27.1402 94.0223 26.3063 94.0223 21.7313ZM85.1813 21.6123C85.1813 17.0371 88.3876 15.0833 91.5703 15.0833C94.9888 15.0833 97.9829 17.1563 97.9829 21.493C97.9829 26.068 94.8239 28.0698 91.5703 28.0698C88.152 28.0698 85.1813 25.9726 85.1813 21.6123Z" fill="#147BD1"/>
<path fill-rule="evenodd" clip-rule="evenodd" d="M52.6062 15.0833C50.8853 15.0833 49.3293 15.8697 48.0799 16.775H47.9854L48.0318 15.2727C48.0355 15.1575 47.9372 15.0661 47.8242 15.0789L44.5251 15.4569C44.4282 15.4679 44.3548 15.5507 44.3548 15.6494V27.5947C44.3548 27.6991 44.4385 27.7836 44.5416 27.7836H47.9164C48.0195 27.7836 48.1032 27.6991 48.1032 27.5947V17.6091C48.6218 17.4898 49.4706 17.2994 50.296 17.2994C51.4039 17.2994 51.9227 17.7521 51.9227 19.2056V27.5947C51.9227 27.6991 52.0064 27.7836 52.1095 27.7836H55.5079C55.611 27.7836 55.6949 27.6991 55.6949 27.5947V18.2765C55.6949 16.1318 54.6104 15.0833 52.6062 15.0833Z" fill="#147BD1"/>
<path fill-rule="evenodd" clip-rule="evenodd" d="M65.8091 25.6629C65.4318 25.8059 64.7952 26.1872 63.8286 26.1872C62.0369 26.1872 61.0939 24.9719 61.0939 21.2309C61.0939 17.2992 62.2726 16.0364 63.97 16.0364C64.8425 16.0364 65.4082 16.5367 65.8091 17.0371V25.6629ZM69.5575 12.7482C69.5575 11.5165 69.599 10.3849 69.6209 9.9204C69.6273 9.78451 69.5131 9.67535 69.3792 9.68744L65.9837 10.0772C65.8848 10.0861 65.8091 10.1698 65.8091 10.2704V13.606C65.8091 14.4637 65.8562 15.3454 65.8562 15.3454C65.3611 15.2023 64.701 15.0833 64.0646 15.0833C60.3866 15.0833 57.2273 17.0611 57.2273 22.0174C57.2273 26.3539 59.5141 28.0696 61.8482 28.0696C63.4985 28.0696 64.8188 27.4024 65.8326 26.5209H65.9268L65.879 27.8361C65.8736 27.9762 65.9946 28.087 66.1318 28.0674L69.3663 27.7024C69.476 27.687 69.5575 27.5922 69.5575 27.4803V12.7482Z" fill="#147BD1"/>
<path fill-rule="evenodd" clip-rule="evenodd" d="M106.745 15.0833C105.377 15.0833 104.033 16.1318 103.303 16.9181H103.208L103.254 15.3168C103.258 15.1806 103.142 15.0721 103.008 15.0873L99.748 15.4571C99.6508 15.4681 99.5776 15.5509 99.5776 15.6498V27.5594C99.5776 27.6832 99.6769 27.7836 99.7994 27.7836H103.104C103.227 27.7836 103.326 27.6832 103.326 27.5594V17.8951C103.656 17.5853 104.198 17.2754 104.623 17.2754C104.835 17.2754 104.977 17.3232 105.118 17.5853C105.566 18.3239 105.92 18.7508 106.933 18.7508C107.853 18.7508 108.675 18.0142 108.675 16.8704C108.675 15.7027 107.876 15.0833 106.745 15.0833Z" fill="#147BD1"/>
<path fill-rule="evenodd" clip-rule="evenodd" d="M23.308 27.1164C22.5064 27.1164 21.87 26.7589 21.4454 26.2586V17.5852C21.8227 17.4423 22.4122 17.1562 23.3552 17.1562C25.1469 17.1562 26.1608 18.3476 26.1608 21.755C26.1608 26.1157 25.1705 27.1164 23.308 27.1164ZM25.4062 15.0834C23.7558 15.0834 22.4359 15.8696 21.4454 16.7275H21.3276L21.3731 15.3017C21.3773 15.1718 21.2664 15.0684 21.1388 15.083L17.8673 15.4568C17.7702 15.468 17.697 15.5509 17.697 15.6497V32.9033C17.697 33.0189 17.7964 33.109 17.9102 33.096L21.2753 32.7117C21.3722 32.7007 21.4454 32.6178 21.4454 32.5191V29.2849C21.4454 28.451 21.422 27.8314 21.422 27.8314C21.9407 27.9743 22.7188 28.0695 23.2138 28.0695C27.1509 28.0695 30.027 25.9013 30.027 20.945C30.027 16.5844 27.646 15.0834 25.4062 15.0834Z" fill="#147BD1"/>
</g>
<defs>
<clipPath id="clip0_146_1329">
<rect width="109.015" height="38.7464" fill="white"/>
</clipPath>
</defs>
</svg>
