<svg width="131" height="39" viewBox="0 0 131 39" fill="none" xmlns="http://www.w3.org/2000/svg">
<g clip-path="url(#clip0_146_1355)">
<path d="M8.41932 11.987L7.33093 15.9618L13.5607 11.9644L9.48628 27.0476L13.6242 27.0511L19.6432 4.77246" fill="#3395FF"/>
<path d="M1.71378 20.7106L0 27.0516H8.48112L11.9515 14.1522L1.71378 20.7106ZM31.1742 15.1279C30.9669 15.8925 30.5674 16.454 29.9718 16.8126C29.3775 17.1705 28.5434 17.3502 27.4667 17.3502H24.0461L25.2471 12.9071H28.6678C29.743 12.9071 30.4817 13.0853 30.8825 13.4487C31.2833 13.8121 31.3801 14.3675 31.1742 15.1355V15.1279ZM34.7157 15.0395C35.1511 13.435 34.9714 12.2008 34.1753 11.3369C33.3807 10.4798 31.9861 10.0479 29.9959 10.0479H22.362L17.7666 27.0592H21.4754L23.3274 20.2025H25.7599C26.3058 20.2025 26.7356 20.2917 27.0494 20.4631C27.3638 20.6414 27.5483 20.9499 27.6049 21.3956L28.267 27.0592H32.2404L31.5964 21.7796C31.4651 20.6002 30.9212 19.9077 29.9655 19.702C31.1838 19.3523 32.2045 18.7695 33.0268 17.9604C33.8434 17.1573 34.4269 16.1506 34.7157 15.0463V15.0395ZM43.731 20.9705C43.4201 22.1224 42.9433 22.9932 42.2985 23.6034C41.6531 24.2137 40.8819 24.5154 39.9822 24.5154C39.0658 24.5154 38.4446 24.2205 38.1163 23.624C37.7874 23.0275 37.7764 22.1635 38.0818 21.0322C38.3872 19.9008 38.8744 19.0163 39.5447 18.3787C40.215 17.741 40.9987 17.4222 41.8984 17.4222C42.7968 17.4222 43.4118 17.7307 43.7227 18.343C44.0406 18.9581 44.0475 19.8378 43.7366 20.9828L43.731 20.9705ZM45.3564 14.9504L44.892 16.6714C44.6916 16.0543 44.3025 15.5606 43.7276 15.1903C43.1513 14.8269 42.4381 14.6418 41.5874 14.6418C40.544 14.6418 39.542 14.9092 38.5814 15.444C37.6209 15.9788 36.7778 16.7331 36.0591 17.7067C35.3404 18.6804 34.8153 19.7843 34.4766 21.0253C34.1449 22.2732 34.0758 23.3635 34.2762 24.3097C34.4836 25.2627 34.9189 25.9895 35.5892 26.4969C36.2664 27.0112 37.1302 27.2649 38.1875 27.2649C39.0277 27.2691 39.8583 27.0888 40.62 26.7369C41.373 26.3999 42.0428 25.9038 42.5825 25.2833L42.0988 27.077H45.6853L48.9601 14.9565H45.3667L45.3564 14.9504ZM61.848 14.9504H51.4182L50.6891 17.6519H56.7578L48.7349 24.5291L48.0493 27.066H58.8157L59.5448 24.3645H53.0421L61.1881 17.3845L61.848 14.9504ZM71.0285 20.9499C70.7058 22.143 70.2269 23.0398 69.5946 23.624C68.9623 24.2137 68.1966 24.5085 67.2975 24.5085C65.4179 24.5085 64.8001 23.3223 65.4414 20.9499C65.7593 19.7706 66.2403 18.884 66.8829 18.2868C67.5256 17.6875 68.3044 17.3886 69.22 17.3886C70.1184 17.3886 70.7251 17.6855 71.0375 18.2834C71.3498 18.8799 71.347 19.7692 71.0285 20.9485V20.9499ZM73.1279 15.4063C72.3021 14.8962 71.2482 14.6411 69.9629 14.6411C68.6617 14.6411 67.4572 14.8948 66.3488 15.4022C65.2449 15.9064 64.2748 16.6591 63.5155 17.6004C62.7346 18.5535 62.1728 19.6712 61.828 20.9465C61.4894 22.217 61.4479 23.3326 61.7105 24.2877C61.9731 25.2408 62.5259 25.9745 63.3552 26.4819C64.1913 26.9934 65.2555 27.2477 66.5616 27.2477C67.8469 27.2477 69.0424 26.9913 70.1412 26.4812C71.2399 25.9683 72.1797 25.2401 72.9606 24.2802C73.7415 23.3244 74.3012 22.2095 74.6468 20.9341C74.9923 19.6588 75.0337 18.5453 74.7711 17.5881C74.5085 16.635 73.9626 15.9014 73.1403 15.3905L73.1279 15.4063ZM85.9314 18.1881L86.8505 14.89C86.5395 14.7323 86.1318 14.65 85.6205 14.65C84.7981 14.65 84.0103 14.8516 83.2502 15.2603C82.5965 15.6072 82.0409 16.0968 81.571 16.7098L82.0478 14.9339L81.0064 14.938H78.4495L75.1533 27.0537H78.7902L80.5005 20.7202C80.7493 19.7994 81.1971 19.0746 81.8432 18.5604C82.4859 18.0441 83.2875 17.7856 84.255 17.7856C84.8493 17.7856 85.4021 17.9207 85.9273 18.1901L85.9314 18.1881ZM96.051 21.0082C95.74 22.1395 95.2701 23.0035 94.6275 23.6C93.9848 24.1993 93.2108 24.4982 92.3125 24.4982C91.4141 24.4982 90.7991 24.1965 90.4743 23.5932C90.1426 22.9863 90.1357 22.1121 90.4467 20.9629C90.7576 19.8145 91.2345 18.9334 91.8909 18.3231C92.5474 17.7081 93.3214 17.4009 94.2197 17.4009C95.1043 17.4009 95.6986 17.7163 96.0164 18.354C96.3343 18.9917 96.3412 19.8762 96.0358 21.0075L96.051 21.0082ZM98.5788 15.4262C97.9051 14.8914 97.0447 14.624 96.0012 14.624C95.087 14.624 94.2156 14.8297 93.3891 15.2452C92.5633 15.66 91.893 16.2257 91.3782 16.9415L91.3906 16.8592L92.0008 14.9325H88.4489L87.5436 18.2854L87.516 18.402L83.7844 32.214H87.4261L89.3058 25.2614C89.4923 25.8798 89.8724 26.3653 90.4529 26.7164C91.0334 27.066 91.75 27.2395 92.602 27.2395C93.6593 27.2395 94.6682 26.9858 95.6253 26.4784C96.5859 25.9697 97.4151 25.2374 98.12 24.2912C98.8248 23.3449 99.348 22.2479 99.6817 21.0068C100.02 19.7637 100.089 18.655 99.896 17.6848C99.699 16.7132 99.263 15.961 98.5899 15.4289L98.5788 15.4262ZM110.659 20.9588C110.348 22.1039 109.871 22.9815 109.228 23.5849C108.586 24.1924 107.812 24.4948 106.913 24.4948C105.994 24.4948 105.372 24.2 105.048 23.6034C104.716 23.0069 104.709 22.143 105.013 21.0116C105.317 19.8803 105.802 18.9958 106.473 18.3581C107.143 17.7204 107.927 17.4023 108.827 17.4023C109.725 17.4023 110.333 17.7108 110.651 18.3211C110.969 18.9334 110.971 19.8131 110.662 20.9609L110.659 20.9588ZM112.283 14.9353L111.818 16.6563C111.617 16.0358 111.23 15.5421 110.657 15.1753C110.076 14.8091 109.365 14.6267 108.515 14.6267C107.471 14.6267 106.464 14.8941 105.502 15.4289C104.541 15.9638 103.698 16.7139 102.979 17.6848C102.261 18.6557 101.735 19.7623 101.397 21.0034C101.062 22.2493 100.996 23.3415 101.196 24.2918C101.399 25.2381 101.835 25.969 102.509 26.4791C103.183 26.9865 104.05 27.2429 105.108 27.2429C105.958 27.2429 106.77 27.0674 107.54 26.715C108.291 26.3764 108.96 25.8797 109.498 25.2593L109.014 27.0544H112.601L115.875 14.9387H112.288L112.283 14.9353ZM130.932 14.9394L130.934 14.936H128.73C128.659 14.936 128.597 14.9394 128.533 14.9408H127.389L126.802 15.7498L126.656 15.9418L126.594 16.0378L121.947 22.4611L120.986 14.9394H117.18L119.108 26.3694L114.851 32.2181H118.645L119.675 30.7693C119.704 30.7268 119.73 30.6912 119.765 30.6459L120.967 28.9523L121.002 28.9043L126.387 21.3277L130.927 14.951L130.934 14.9469H130.932V14.9394Z" fill="black"/>
</g>
<defs>
<clipPath id="clip0_146_1355">
<rect width="130.98" height="38.7464" fill="white"/>
</clipPath>
</defs>
</svg>
