<svg width="92" height="37" viewBox="0 0 92 37" fill="none" xmlns="http://www.w3.org/2000/svg">
<path d="M28.8355 24.4627L29.9517 21.874C31.1739 22.772 32.7681 23.2474 34.3626 23.2474C35.5318 23.2474 36.2758 22.7985 36.2758 22.1118C36.2491 20.2098 29.2341 21.689 29.1807 16.9071C29.1541 14.4768 31.3332 12.6012 34.416 12.6012C36.2491 12.6012 38.083 13.0504 39.3848 14.0809L38.3417 16.7248C37.1439 15.9606 35.6645 15.4278 34.2563 15.4278C33.2997 15.4278 32.6618 15.8767 32.6618 16.4582C32.6884 18.3338 39.7572 17.3034 39.8368 21.874C39.8368 24.3572 37.7106 26.1008 34.6812 26.1008C32.4495 26.1008 30.4033 25.5725 28.8351 24.4627H28.8355ZM73.2829 20.9366C73.0011 21.4333 72.5913 21.8467 72.0954 22.1345C71.5994 22.4222 71.0353 22.5739 70.4608 22.5739C68.6704 22.5739 67.2192 21.1309 67.2192 19.351C67.2192 17.5711 68.6704 16.1281 70.4608 16.1281C71.0353 16.1282 71.5994 16.2798 72.0954 16.5676C72.5913 16.8553 73.0011 17.2687 73.2829 17.7655L76.3862 16.0563C75.2239 13.995 73.0066 12.6012 70.4608 12.6012C66.7111 12.6012 63.6714 15.6229 63.6714 19.351C63.6714 23.0787 66.7111 26.1008 70.4608 26.1008C73.0066 26.1008 75.2239 24.707 76.3862 22.6457L73.2829 20.9366ZM41.8506 25.8365H45.7302V6.98242H41.8509L41.8506 25.8365ZM78.3455 6.98242V25.8365H82.2251V20.1878L86.8224 25.8365H91.7813L85.9352 19.126L91.356 12.8644H86.6097L82.2251 18.0702V6.98242H78.3455ZM57.6828 12.8651V14.3978C57.0452 13.3408 55.4773 12.6012 53.8298 12.6012C50.4285 12.6012 47.7447 15.5866 47.7447 19.3378C47.7447 23.0889 50.4285 26.1008 53.8298 26.1008C55.4773 26.1008 57.0452 25.3612 57.6828 24.3043V25.8365H61.5624V12.8651H57.6828ZM57.6828 20.9626C57.1248 21.8872 55.9556 22.5735 54.6538 22.5735C52.8629 22.5735 51.4117 21.1309 51.4117 19.351C51.4117 17.5711 52.8629 16.1281 54.6538 16.1281C55.9556 16.1281 57.1248 16.8413 57.6828 17.7919V20.9626Z" fill="black"/>
<path d="M8.34707 6.56592C7.08981 6.56592 6.07073 7.57933 6.07073 8.82909C6.07043 9.12599 6.12907 9.42005 6.24331 9.69447C6.35754 9.96889 6.52513 10.2183 6.73651 10.4284C6.94789 10.6386 7.19891 10.8054 7.47525 10.9193C7.75159 11.0332 8.04784 11.092 8.34707 11.0923H10.6238V8.82909C10.6243 8.22942 10.3847 7.65412 9.95776 7.2297C9.53081 6.80529 8.95143 6.56652 8.34707 6.56592ZM8.34707 12.601H2.27646C1.0192 12.601 0.00012207 13.6145 0.00012207 14.8646C0.00012207 16.1143 1.0192 17.1278 2.27646 17.1278H8.34745C9.60433 17.1278 10.6238 16.1143 10.6238 14.8646C10.6238 13.6145 9.60433 12.601 8.34707 12.601Z" fill="#36C5F0"/>
<path d="M22.7651 14.8646C22.7651 13.6145 21.7457 12.601 20.4884 12.601C19.2312 12.601 18.2121 13.6145 18.2121 14.8646V17.1278H20.4884C21.0928 17.1271 21.6722 16.8884 22.0991 16.464C22.5261 16.0396 22.7657 15.4642 22.7651 14.8646ZM16.6945 14.8646V8.82909C16.695 8.22942 16.4555 7.65412 16.0285 7.2297C15.6016 6.80529 15.0222 6.56652 14.4178 6.56592C13.1606 6.56592 12.1415 7.57933 12.1415 8.82909V14.8642C12.1415 16.1147 13.1606 17.1281 14.4178 17.1281C15.0222 17.1275 15.6016 16.8888 16.0285 16.4643C16.4555 16.0399 16.695 15.4646 16.6945 14.865" fill="#2EB67D"/>
<path d="M14.4178 29.1986C15.0222 29.198 15.6016 28.9592 16.0285 28.5348C16.4555 28.1104 16.695 27.535 16.6945 26.9354C16.695 26.3357 16.4555 25.7604 16.0285 25.336C15.6016 24.9116 15.0222 24.6728 14.4178 24.6722H12.1415V26.9354C12.1415 28.1851 13.1606 29.1986 14.4178 29.1986ZM14.4178 23.1634H20.4888C21.7457 23.1634 22.7651 22.15 22.7651 20.8999C22.7657 20.3002 22.5261 19.7249 22.0991 19.3005C21.6722 18.8761 21.0928 18.6373 20.4884 18.6367H14.4178C13.1606 18.6367 12.1415 19.6501 12.1415 20.8999C12.1412 21.1968 12.1998 21.4909 12.3141 21.7653C12.4283 22.0397 12.5959 22.2891 12.8073 22.4993C13.0186 22.7094 13.2697 22.8762 13.546 22.9901C13.8223 23.104 14.1186 23.1628 14.4178 23.1631" fill="#ECB22E"/>
<path d="M1.14858e-06 20.8999C-0.000299286 21.1968 0.0583416 21.4909 0.172576 21.7653C0.28681 22.0397 0.4544 22.2891 0.665777 22.4993C0.877155 22.7094 1.12818 22.8762 1.40452 22.9901C1.68086 23.104 1.9771 23.1628 2.27634 23.1631C2.8807 23.1625 3.46008 22.9237 3.88703 22.4993C4.31399 22.0749 4.55356 21.4996 4.55305 20.8999V18.6367H2.27634C1.01907 18.6367 1.14858e-06 19.6501 1.14858e-06 20.8999ZM6.07061 20.8999V26.935C6.07061 28.1851 7.08969 29.1986 8.34695 29.1986C8.95131 29.198 9.53069 28.9592 9.95764 28.5348C10.3846 28.1104 10.6242 27.535 10.6237 26.9354V20.8999C10.624 20.603 10.5653 20.3089 10.4511 20.0344C10.3368 19.76 10.1692 19.5106 9.95776 19.3004C9.74634 19.0902 9.49527 18.9235 9.21888 18.8096C8.9425 18.6957 8.64621 18.637 8.34695 18.6367C7.08969 18.6367 6.07061 19.6501 6.07061 20.8999Z" fill="#E01E5A"/>
</svg>
