<svg width="50" height="34" viewBox="0 0 50 34" fill="none" xmlns="http://www.w3.org/2000/svg">
<g clip-path="url(#clip0_146_1412)">
<path d="M2.87725 19.8822C3.08859 20.4387 3.38118 20.9145 3.75508 21.3097C4.12898 21.7049 4.57194 22.0073 5.08396 22.217C5.59604 22.4267 6.15279 22.5315 6.75427 22.5315C7.3395 22.5315 7.88811 22.4226 8.40018 22.2048C8.91226 21.987 9.35927 21.6806 9.74126 21.2855C10.1233 20.8903 10.4199 20.4185 10.6313 19.8701C10.8426 19.3217 10.9483 18.7089 10.9483 18.0314V7.57959H13.5085V24.5154H10.9726V22.9427C10.4037 23.5395 9.73311 23.9992 8.96098 24.3218C8.18879 24.6444 7.35574 24.8057 6.46168 24.8057C5.55131 24.8057 4.70197 24.6484 3.91354 24.3339C3.12517 24.0194 2.44238 23.5718 1.86535 22.9911C1.28831 22.4104 0.833101 21.7129 0.499882 20.8984C0.166609 20.0838 0 19.1766 0 18.1765V7.57959H2.56027V18.0314C2.56027 18.7089 2.66591 19.3257 2.87725 19.8822Z" fill="#010202"/>
<path d="M17.9217 7.57959V13.749C18.4907 13.1845 19.1491 12.737 19.8968 12.4063C20.6446 12.0756 21.4574 11.9103 22.3352 11.9103C23.2455 11.9103 24.0989 12.0796 24.8954 12.4183C25.692 12.757 26.3828 13.2167 26.968 13.7974C27.5533 14.3781 28.0166 15.0636 28.3579 15.8539C28.6993 16.6443 28.87 17.483 28.87 18.3701C28.87 19.2572 28.6993 20.0919 28.3579 20.8741C28.0166 21.6564 27.5533 22.3379 26.968 22.9185C26.3828 23.4992 25.692 23.9589 24.8954 24.2976C24.0989 24.6363 23.2455 24.8056 22.3352 24.8056C21.4573 24.8056 20.6405 24.6403 19.8846 24.3096C19.1287 23.979 18.4663 23.5314 17.8974 22.9669V24.5153H15.459V7.57959H17.9217ZM18.2021 20.0395C18.4216 20.5556 18.7264 21.0073 19.1166 21.3944C19.5067 21.7815 19.9619 22.088 20.482 22.3138C21.0022 22.5396 21.563 22.6525 22.1645 22.6525C22.7498 22.6525 23.3024 22.5396 23.8226 22.3138C24.3427 22.088 24.7938 21.7815 25.1759 21.3944C25.5579 21.0073 25.8627 20.5556 26.0903 20.0395C26.3178 19.5233 26.4316 18.9669 26.4316 18.3701C26.4316 17.7733 26.3178 17.2128 26.0903 16.6886C25.8627 16.1644 25.5579 15.7088 25.1759 15.3217C24.7939 14.9346 24.3428 14.6321 23.8226 14.4144C23.3024 14.1967 22.7497 14.0877 22.1645 14.0877C21.5793 14.0877 21.0266 14.1966 20.5065 14.4144C19.9863 14.6322 19.5311 14.9346 19.1409 15.3217C18.7509 15.7088 18.442 16.1644 18.2144 16.6886C17.9868 17.2128 17.873 17.7733 17.873 18.3701C17.873 18.9669 17.9827 19.5233 18.2021 20.0395Z" fill="#010202"/>
<path d="M30.2595 15.8781C30.5846 15.1039 31.0317 14.4225 31.6006 13.8337C32.1695 13.245 32.8442 12.7813 33.6245 12.4426C34.4047 12.1039 35.25 11.9346 36.1603 11.9346C37.0544 11.9346 37.8835 12.0959 38.6475 12.4184C39.4115 12.741 40.0698 13.1886 40.6225 13.7612C41.1752 14.3337 41.6061 15.0112 41.9148 15.7935C42.2237 16.5758 42.3781 17.4266 42.3781 18.346V19.1444H32.259C32.3403 19.6444 32.5029 20.1081 32.7467 20.5355C32.9906 20.9629 33.2953 21.3339 33.661 21.6484C34.0268 21.963 34.4413 22.209 34.9046 22.3863C35.3679 22.5637 35.8596 22.6525 36.3798 22.6525C37.8591 22.6525 39.0539 22.0476 39.9642 20.8379L41.7442 22.1443C41.1265 22.9669 40.3625 23.6121 39.4522 24.0799C38.5419 24.5476 37.5178 24.7815 36.3799 24.7815C35.4533 24.7815 34.5877 24.6201 33.783 24.2976C32.9784 23.975 32.2794 23.5234 31.6861 22.9427C31.0927 22.362 30.6254 21.6806 30.284 20.8983C29.9426 20.1161 29.7719 19.2652 29.7719 18.3459C29.7718 17.4749 29.9344 16.6523 30.2595 15.8781ZM33.6854 14.9224C32.9945 15.495 32.5353 16.2571 32.3078 17.2087H39.8911C39.6797 16.2571 39.2286 15.495 38.5378 14.9224C37.8469 14.3499 37.0382 14.0636 36.1116 14.0636C35.185 14.0636 34.3763 14.3499 33.6854 14.9224Z" fill="#010202"/>
<path d="M46.9866 15.2007C46.4664 15.7652 46.2063 16.5313 46.2063 17.4991V24.5154H43.7435V12.1765H46.1819V13.7007C46.4908 13.2007 46.8931 12.8055 47.3889 12.5152C47.8847 12.2248 48.4739 12.0796 49.1567 12.0796H50.0101V14.3539H48.986C48.1733 14.3539 47.5068 14.6362 46.9866 15.2007Z" fill="#010202"/>
</g>
<defs>
<clipPath id="clip0_146_1412">
<rect width="50" height="33.0741" fill="white"/>
</clipPath>
</defs>
</svg>
