<svg width="137" height="39" viewBox="0 0 137 39" fill="none" xmlns="http://www.w3.org/2000/svg">
<g clip-path="url(#clip0_146_1422)">
<path fill-rule="evenodd" clip-rule="evenodd" d="M36.3217 8.15723L24.7318 30.6378H13.8457L18.6961 21.3208H18.4785C14.477 26.4749 8.50673 29.8678 0 30.6378V21.4498C0 21.4498 5.44196 21.1309 8.64113 17.7936H0V8.1574H9.7117V16.083L9.92968 16.0821L13.8982 8.1574H21.2429V16.0328L21.4609 16.0324L25.5783 8.15723H36.3217Z" fill="#146EF5"/>
<path d="M99.5213 28.1563H102.649V10.3428H99.5213V28.1563Z" fill="#080808"/>
<path fill-rule="evenodd" clip-rule="evenodd" d="M82.2785 27.9744C82.9584 28.2549 83.6496 28.395 84.3523 28.395C85.5133 28.395 86.552 28.1146 87.4686 27.5538C88.3851 26.993 89.0954 26.2199 89.5996 25.2348C90.1038 24.2419 90.3557 23.1166 90.3557 21.8585C90.3557 20.6004 90.0961 19.475 89.5767 18.4822C89.0573 17.4894 88.3356 16.7202 87.4113 16.1745C86.4872 15.6213 85.4369 15.3484 84.2606 15.356C83.5122 15.356 82.7942 15.5 82.1068 15.788C81.4192 16.076 80.8465 16.4852 80.3881 17.0157C80.3528 17.0561 80.3184 17.0969 80.2851 17.1381V10.3541H77.1458V28.1563H80.2621L80.2559 26.4933C80.3365 26.5913 80.4226 26.6871 80.5142 26.7807C81.0107 27.2886 81.5988 27.6864 82.2785 27.9744ZM85.4865 25.0983C84.9748 25.409 84.3905 25.5645 83.7337 25.5645C83.0844 25.5645 82.4886 25.4053 81.9463 25.087C81.404 24.761 80.9725 24.3177 80.6517 23.7569C80.3385 23.1961 80.182 22.5595 80.182 21.8471C80.1743 21.1347 80.3271 20.4981 80.6402 19.9373C80.961 19.3689 81.3926 18.9293 81.9349 18.6186C82.4771 18.3003 83.0767 18.145 83.7337 18.1525C84.3905 18.145 84.9748 18.2965 85.4865 18.6072C86.0059 18.9104 86.4031 19.3462 86.6781 19.9146C86.9606 20.4754 87.102 21.1196 87.102 21.8471C87.102 22.5746 86.9606 23.2188 86.6781 23.7797C86.4031 24.3405 86.0059 24.78 85.4865 25.0983Z" fill="#080808"/>
<path d="M40.853 11.4227H44.4275L47.6252 23.0097L51.0268 11.4227H54.0056L57.6949 22.7772L60.7653 11.4227H64.042L59.2071 28.1563H56.1251L52.3738 17.0639L48.9301 28.1563H45.8138L40.853 11.4227Z" fill="#080808"/>
<path fill-rule="evenodd" clip-rule="evenodd" d="M69.3207 28.4519C68.0756 28.4594 66.9529 28.1866 65.9523 27.6334C64.9594 27.0726 64.1765 26.2957 63.6036 25.303C63.0384 24.3101 62.7557 23.1771 62.7557 21.9039C62.7557 20.6687 63.0461 19.5508 63.6265 18.5504C64.207 17.55 64.9938 16.7694 65.9866 16.2086C66.9796 15.6478 68.0871 15.3674 69.3092 15.3674C70.684 15.3674 71.8871 15.6705 72.9182 16.2768C73.957 16.8831 74.7322 17.7433 75.2439 18.8573C75.7633 19.9638 75.9505 21.2332 75.8053 22.6655H65.9915C66.019 23.2362 66.1624 23.7554 66.4221 24.223C66.7123 24.7383 67.1171 25.14 67.6364 25.428C68.1558 25.7159 68.7364 25.8599 69.378 25.8599C69.8668 25.8524 70.3212 25.769 70.7413 25.6099C71.1614 25.4432 71.5166 25.2196 71.8069 24.9392C72.1047 24.6588 72.3147 24.3405 72.4369 23.9843H75.7137C75.5151 24.8558 75.1179 25.6326 74.5222 26.3147C73.9264 26.9891 73.1778 27.5159 72.2766 27.8948C71.3752 28.2737 70.3899 28.4594 69.3207 28.4519ZM66.4335 19.5394C66.2504 19.8561 66.1237 20.1972 66.0531 20.5625H72.5584C72.5112 20.1009 72.3676 19.6803 72.1276 19.3007C71.8527 18.8536 71.4784 18.5087 71.0048 18.2662C70.5313 18.0161 69.9966 17.8911 69.4009 17.8911C68.7669 17.8911 68.1903 18.0351 67.6709 18.323C67.1515 18.611 66.739 19.0165 66.4335 19.5394Z" fill="#080808"/>
<path d="M92.6586 15.6289C92.6586 14.6133 92.8916 13.7115 93.3575 12.9233C93.8235 12.1275 94.4765 11.5099 95.3167 11.0703C96.1644 10.6232 97.1536 10.392 98.284 10.3769V13.1393C97.757 13.1469 97.3064 13.2568 96.9321 13.4689C96.5655 13.6736 96.2828 13.9729 96.0843 14.367C95.9014 14.7298 95.8027 15.1504 95.7882 15.6289H98.2153V18.2548H95.7864V28.1563H92.6586V18.2548H90.6422V15.6289H92.6586Z" fill="#080808"/>
<path fill-rule="evenodd" clip-rule="evenodd" d="M110.6 28.4292C109.325 28.4292 108.183 28.1525 107.174 27.5993C106.174 27.0385 105.387 26.2654 104.814 25.2803C104.249 24.2874 103.967 23.162 103.967 21.9039C103.967 20.6383 104.249 19.5091 104.814 18.5163C105.387 17.5159 106.174 16.7391 107.174 16.1859C108.183 15.6326 109.325 15.356 110.6 15.356C111.883 15.356 113.029 15.6326 114.037 16.1859C115.053 16.7391 115.844 17.5121 116.409 18.5049C116.974 19.4977 117.261 20.6307 117.268 21.9039C117.261 23.162 116.974 24.2874 116.409 25.2803C115.851 26.2654 115.065 27.0385 114.049 27.5993C113.033 28.1525 111.883 28.4292 110.6 28.4292ZM110.6 25.5758C111.272 25.5758 111.868 25.4242 112.388 25.121C112.907 24.8104 113.308 24.3783 113.59 23.8251C113.873 23.2643 114.014 22.6239 114.014 21.9039C114.014 21.1764 113.873 20.5322 113.59 19.9714C113.308 19.4106 112.907 18.9786 112.388 18.6754C111.868 18.3647 111.272 18.2094 110.6 18.2094C109.936 18.2094 109.344 18.3647 108.824 18.6754C108.313 18.9786 107.915 19.4106 107.633 19.9714C107.35 20.5322 107.213 21.1764 107.22 21.9039C107.22 22.6239 107.362 23.2643 107.644 23.8251C107.935 24.3783 108.332 24.8104 108.836 25.121C109.348 25.4242 109.936 25.5758 110.6 25.5758Z" fill="#080808"/>
<path d="M120.648 15.6289H117.165L120.934 28.1563H123.982L126.461 20.155L129.138 28.1563H132.14L135.92 15.6289H132.77L130.626 23.4264L128.256 15.6289H125.208L122.849 23.5982L120.648 15.6289Z" fill="#080808"/>
</g>
<defs>
<clipPath id="clip0_146_1422">
<rect width="136.675" height="38.7464" fill="white"/>
</clipPath>
</defs>
</svg>
