<svg width="108" height="39" viewBox="0 0 108 39" fill="none" xmlns="http://www.w3.org/2000/svg">
<g clip-path="url(#clip0_146_1433)">
<path d="M17.8128 30.6516L10.8135 30.5246C8.5472 30.4804 6.27534 30.5688 4.0536 30.1102C0.673667 29.4251 0.434231 26.0659 0.183659 23.2482C-0.161573 19.2868 -0.027935 15.2536 0.623552 11.3253C0.991058 9.12087 2.43881 7.80592 4.67725 7.66228C12.2334 7.14293 19.8396 7.2037 27.3791 7.4468C28.1753 7.4689 28.9772 7.59045 29.7623 7.72857C33.6378 8.40262 33.7325 12.2093 33.983 15.4138C34.2336 18.6514 34.1278 21.9056 33.6489 25.1212C33.2647 27.7842 32.5297 30.0163 29.4282 30.2317C25.5415 30.5135 21.744 30.74 17.8462 30.6682C17.8462 30.6516 17.8239 30.6516 17.8128 30.6516ZM13.6978 23.9112C16.6268 22.2427 19.5 20.6017 22.4122 18.9442C19.4777 17.2757 16.61 15.6348 13.6978 13.9773V23.9112Z" fill="#FF0000"/>
<path d="M90.3061 27.624C90.1725 28.1654 90.0556 28.5908 89.9386 29.0439H87.1991V8.07666H90.3952V15.8116C90.5623 15.6017 90.6458 15.5133 90.7182 15.4193C91.2639 14.6735 91.9711 14.1873 92.8843 13.9994C94.3376 13.7176 95.5793 14.353 96.0192 15.7398C96.3032 16.6017 96.4869 17.5243 96.5092 18.4249C96.5537 20.7399 96.5203 23.0493 96.4368 25.3643C96.4034 26.0715 96.1862 26.7952 95.9134 27.4582C95.0169 29.6461 92.088 29.9776 90.6347 28.0825C90.5456 27.9665 90.4621 27.8394 90.3061 27.624ZM90.4621 25.6902C90.4621 26.3146 90.7962 26.6958 91.4254 26.8394C92.0434 26.9831 92.5446 26.7455 92.7952 26.1764C92.901 25.9389 93.0068 25.6902 93.0123 25.4416C93.0736 23.099 93.1293 20.7564 93.146 18.4083C93.146 17.9719 93.0402 17.5188 92.9065 17.0934C92.656 16.3254 91.9655 16.0989 91.2862 16.5464C90.7739 16.889 90.4621 17.3752 90.4621 18.0216V25.6902ZM81.7756 14.2978H85.1221V29.0549H82.5106C82.4159 28.4969 82.3212 27.9223 82.2099 27.2483C82.0317 27.5079 81.9259 27.6737 81.8145 27.8394C80.9459 29.0826 79.7153 29.508 78.262 29.2815C77.0203 29.0826 76.2741 28.1323 76.1071 26.5742C76.0569 26.1101 76.0347 25.6405 76.0347 25.1764C76.0235 21.7233 76.0347 18.2592 76.0347 14.8061V14.2867H79.4202V14.8889C79.4202 18.226 79.409 21.5576 79.4313 24.8946C79.4313 25.3698 79.4814 25.8615 79.565 26.3367C79.6596 26.8228 80.016 26.9996 80.4949 26.9665C81.2688 26.9057 81.8034 26.3367 81.8034 25.5742V14.9497C81.7756 14.7342 81.7756 14.5353 81.7756 14.2978ZM58.7341 14.2867H62.0973V14.911C62.0973 18.2315 62.0862 21.5465 62.1084 24.856C62.1084 25.3311 62.153 25.8228 62.2532 26.2869C62.3813 26.8339 62.7042 27.0107 63.2555 26.9389C64.0183 26.8339 64.4805 26.309 64.4861 25.5411V14.3088H67.8326V29.0549H65.2322C65.1376 28.508 65.0429 27.9444 64.9204 27.2317C64.7534 27.4803 64.6587 27.624 64.564 27.7731C63.6954 29.0384 62.4759 29.5025 60.9892 29.2759C59.7976 29.0991 59.0682 28.2262 58.8454 26.7952C58.7842 26.3477 58.7396 25.9057 58.7396 25.4582C58.7285 21.8725 58.7285 18.2702 58.7285 14.6845L58.7341 14.2867ZM57.0079 22.1653C56.9967 22.6626 56.9633 23.1598 56.9355 23.657C56.8074 25.1488 56.7462 27.2648 55.5323 28.3533C54.7583 29.0384 53.7783 29.287 52.7649 29.3201C52.3138 29.3312 51.8572 29.3312 51.4062 29.2704C49.2736 28.95 48.2824 28.0162 47.926 25.6902C47.5196 23.0051 47.4861 20.2758 47.9706 17.5906C48.4717 14.8116 50.1979 13.8281 52.8818 14.0105C55.3875 14.1873 56.5067 15.8171 56.8019 18.1376C56.9633 19.4691 57.0413 20.8172 57.0079 22.1653ZM53.6001 21.657C53.6001 20.7122 53.6224 19.762 53.589 18.8172C53.5667 18.2702 53.4943 17.7177 53.3774 17.1763C53.2437 16.5519 52.8428 16.2536 52.3417 16.2647C51.8517 16.2757 51.5064 16.574 51.3283 17.1542C51.267 17.3696 51.2002 17.5906 51.2002 17.8061C51.2002 19.2868 51.189 20.773 51.1779 22.2537C51.1668 23.6349 50.9886 25.0825 51.4285 26.403C51.5621 26.8063 51.9074 27.0273 52.3584 27.0273C52.7983 27.0273 53.0878 26.8118 53.2493 26.4251C53.3774 26.1267 53.4887 25.8007 53.4887 25.4803C53.5277 24.2095 53.6001 22.9333 53.6001 21.657ZM43.0148 18.878C43.3099 17.447 43.5884 16.0492 43.8946 14.6458C44.2788 12.8613 44.7076 11.0767 45.0862 9.28663C45.1809 8.85015 45.3591 8.74518 45.7767 8.75623C46.6732 8.78938 47.5864 8.76728 48.5441 8.76728C48.2323 9.90542 47.926 10.9883 47.6254 12.0546C46.6732 15.4028 45.721 18.7619 44.78 22.1211C44.7076 22.3808 44.6742 22.6626 44.6742 22.9388C44.663 24.7731 44.6742 26.6019 44.6742 28.4361V29.0328H41.4056C41.3945 28.8671 41.3722 28.7013 41.3722 28.5356C41.3722 27.4969 41.2887 26.4527 41.3833 25.425C41.6228 22.9554 40.8321 20.6846 40.1917 18.3862C39.3453 15.3475 38.4878 12.2977 37.6414 9.259C37.5969 9.11535 37.5802 8.96065 37.5356 8.78386H40.871C41.5726 12.1375 42.2798 15.4912 43.0148 18.878ZM106.966 22.7289H101.331C101.393 23.8504 101.415 24.9167 101.532 25.972C101.615 26.7068 102.022 27.0217 102.662 27.0273C103.33 27.0383 103.72 26.7068 103.876 25.9775C103.926 25.74 103.96 25.5024 103.982 25.2593C104.004 25.0438 104.015 24.8118 104.032 24.5024C104.984 24.5521 105.914 24.6073 106.833 24.646C107.367 26.2206 106.404 28.2428 104.784 28.8671C103.509 29.3643 102.2 29.3643 100.897 28.9831C99.9337 28.7013 99.2154 28.0936 98.8924 27.1599C98.5917 26.2869 98.3078 25.3753 98.2465 24.4637C98.0795 22.215 98.0182 19.9443 98.3634 17.6901C98.4247 17.3144 98.5305 16.9553 98.6474 16.5906C99.1152 15.0878 100.134 14.1652 101.71 14.0105C102.567 13.9276 103.453 13.9607 104.299 14.1044C105.669 14.342 106.398 15.3199 106.716 16.6017C106.861 17.2039 106.966 17.8227 106.989 18.436C106.994 19.8448 106.966 21.2426 106.966 22.7289ZM103.765 20.7896C103.765 19.6791 103.776 18.6349 103.754 17.5851C103.754 17.3365 103.659 17.0768 103.564 16.8392C103.375 16.3752 102.98 16.2481 102.506 16.2481C102.033 16.2481 101.732 16.4857 101.615 16.9111C101.259 18.1873 101.376 19.4912 101.387 20.8006C102.239 20.7896 103.013 20.7896 103.765 20.7896Z" fill="#282828"/>
<path d="M70.4162 11.4745H67.1031V8.81145H76.9923V11.4579H73.7015V29.0328H70.4217L70.4162 11.4745Z" fill="#282828"/>
</g>
<defs>
<clipPath id="clip0_146_1433">
<rect width="107.388" height="38.7464" fill="white"/>
</clipPath>
</defs>
</svg>
